<svg width="971" height="1282" viewBox="0 0 971 1282" fill="none" xmlns="http://www.w3.org/2000/svg">
<mask id="path-1-inside-1_2156_2668" fill="white">
<path d="M0 0H971V124H0V0Z"/>
</mask>
<path d="M971 116H0V132H971V116Z" fill="#00A860" mask="url(#path-1-inside-1_2156_2668)"/>
<path d="M27.84 18.2C31.3067 18.2 34.3733 18.7067 37.04 19.72C39.76 20.7333 42.32 22.2533 44.72 24.28L38.48 31.72C36.8267 30.44 35.2 29.48 33.6 28.84C32 28.2 30.2933 27.88 28.48 27.88C24.7467 27.88 21.7867 29.4533 19.6 32.6C17.4667 35.7467 16.4 40.6 16.4 47.16C16.4 53.6133 17.4667 58.4133 19.6 61.56C21.7867 64.6533 24.8 66.2 28.64 66.2C30.6667 66.2 32.5067 65.8267 34.16 65.08C35.8133 64.28 37.6 63.16 39.52 61.72L45.36 69.24C43.28 71.32 40.7467 73.0267 37.76 74.36C34.8267 75.6933 31.5733 76.36 28 76.36C22.88 76.36 18.4267 75.24 14.64 73C10.8533 70.76 7.89333 67.4533 5.76 63.08C3.68 58.6533 2.64 53.3467 2.64 47.16C2.64 41.1333 3.70667 35.9333 5.84 31.56C8.02667 27.1867 11.0133 23.88 14.8 21.64C18.64 19.3467 22.9867 18.2 27.84 18.2ZM67.8131 31.16C74.3198 31.16 79.4131 33.16 83.0931 37.16C86.7731 41.1067 88.6131 46.6533 88.6131 53.8C88.6131 58.3333 87.7598 62.3067 86.0531 65.72C84.3998 69.08 81.9998 71.6933 78.8531 73.56C75.7598 75.4267 72.0798 76.36 67.8131 76.36C61.3598 76.36 56.2665 74.3867 52.5331 70.44C48.8531 66.44 47.0131 60.8667 47.0131 53.72C47.0131 49.1867 47.8398 45.24 49.4931 41.88C51.1998 38.4667 53.5998 35.8267 56.6931 33.96C59.8398 32.0933 63.5465 31.16 67.8131 31.16ZM67.8131 40.44C65.2531 40.44 63.3331 41.5333 62.0531 43.72C60.7731 45.8533 60.1331 49.1867 60.1331 53.72C60.1331 58.36 60.7465 61.7467 61.9731 63.88C63.2531 66.0133 65.1998 67.08 67.8131 67.08C70.3731 67.08 72.2931 66.0133 73.5731 63.88C74.8531 61.6933 75.4931 58.3333 75.4931 53.8C75.4931 49.16 74.8531 45.7733 73.5731 43.64C72.3465 41.5067 70.4265 40.44 67.8131 40.44ZM107.412 76.36C103.732 76.36 100.852 75.32 98.7719 73.24C96.7452 71.1067 95.7319 68.0933 95.7319 64.2V15.64L108.372 14.28V63.72C108.372 65.48 109.092 66.36 110.532 66.36C111.279 66.36 111.972 66.2267 112.612 65.96L115.092 74.92C112.799 75.88 110.239 76.36 107.412 76.36ZM137.891 31.16C144.398 31.16 149.491 33.16 153.171 37.16C156.851 41.1067 158.691 46.6533 158.691 53.8C158.691 58.3333 157.838 62.3067 156.131 65.72C154.478 69.08 152.078 71.6933 148.931 73.56C145.838 75.4267 142.158 76.36 137.891 76.36C131.438 76.36 126.345 74.3867 122.611 70.44C118.931 66.44 117.091 60.8667 117.091 53.72C117.091 49.1867 117.918 45.24 119.571 41.88C121.278 38.4667 123.678 35.8267 126.771 33.96C129.918 32.0933 133.625 31.16 137.891 31.16ZM137.891 40.44C135.331 40.44 133.411 41.5333 132.131 43.72C130.851 45.8533 130.211 49.1867 130.211 53.72C130.211 58.36 130.825 61.7467 132.051 63.88C133.331 66.0133 135.278 67.08 137.891 67.08C140.451 67.08 142.371 66.0133 143.651 63.88C144.931 61.6933 145.571 58.3333 145.571 53.8C145.571 49.16 144.931 45.7733 143.651 43.64C142.425 41.5067 140.505 40.44 137.891 40.44ZM189.25 31.32C190.797 31.32 192.21 31.5067 193.49 31.88L191.49 44.12C189.89 43.7467 188.61 43.56 187.65 43.56C185.143 43.56 183.223 44.44 181.89 46.2C180.61 47.9067 179.597 50.4933 178.85 53.96V75H166.21V32.52H177.25L178.29 40.76C179.25 37.8267 180.69 35.5333 182.61 33.88C184.583 32.1733 186.797 31.32 189.25 31.32ZM235.384 18.2C239.544 18.2 243.144 18.7867 246.184 19.96C249.277 21.1333 252.077 22.92 254.584 25.32L248.504 32.44C244.717 29.3467 240.664 27.8 236.344 27.8C234.05 27.8 232.237 28.28 230.904 29.24C229.57 30.1467 228.904 31.48 228.904 33.24C228.904 34.4667 229.197 35.48 229.784 36.28C230.37 37.0267 231.41 37.7467 232.904 38.44C234.397 39.1333 236.637 39.96 239.624 40.92C245.277 42.7333 249.437 44.9733 252.104 47.64C254.77 50.2533 256.104 53.9867 256.104 58.84C256.104 62.3067 255.224 65.3733 253.464 68.04C251.704 70.6533 249.17 72.7067 245.864 74.2C242.557 75.64 238.637 76.36 234.104 76.36C229.57 76.36 225.544 75.64 222.024 74.2C218.557 72.76 215.57 70.84 213.064 68.44L219.704 61.16C221.837 62.9733 224.024 64.3333 226.264 65.24C228.557 66.1467 231.037 66.6 233.704 66.6C236.424 66.6 238.557 66.0133 240.104 64.84C241.704 63.6133 242.504 61.9333 242.504 59.8C242.504 58.4133 242.21 57.2667 241.624 56.36C241.037 55.4 240.024 54.5467 238.584 53.8C237.144 53.0533 235.064 52.2533 232.344 51.4C226.21 49.5333 221.837 47.24 219.224 44.52C216.664 41.8 215.384 38.36 215.384 34.2C215.384 31 216.237 28.2 217.944 25.8C219.65 23.3467 222.024 21.48 225.064 20.2C228.104 18.8667 231.544 18.2 235.384 18.2ZM317.645 32.52L308.845 75H293.725L288.045 43.8L282.445 75H267.485L258.445 32.52H271.245L275.645 65.56L282.285 32.52H294.605L300.445 65.56L305.565 32.52H317.645ZM355.673 62.68C355.673 64.28 355.886 65.4533 356.313 66.2C356.793 66.9467 357.54 67.5067 358.553 67.88L355.913 76.12C353.3 75.9067 351.166 75.3467 349.513 74.44C347.86 73.48 346.58 71.9867 345.673 69.96C342.9 74.2267 338.633 76.36 332.873 76.36C328.66 76.36 325.3 75.1333 322.793 72.68C320.286 70.2267 319.033 67.0267 319.033 63.08C319.033 58.44 320.74 54.8933 324.153 52.44C327.566 49.9867 332.5 48.76 338.953 48.76H343.273V46.92C343.273 44.4133 342.74 42.7067 341.673 41.8C340.606 40.84 338.74 40.36 336.073 40.36C334.686 40.36 333.006 40.5733 331.033 41C329.06 41.3733 327.033 41.9067 324.953 42.6L322.073 34.28C324.74 33.2667 327.46 32.4933 330.233 31.96C333.06 31.4267 335.673 31.16 338.073 31.16C344.153 31.16 348.606 32.4133 351.433 34.92C354.26 37.4267 355.673 41.1867 355.673 46.2V62.68ZM336.553 67.32C339.433 67.32 341.673 65.96 343.273 63.24V55.72H340.153C337.273 55.72 335.113 56.2267 333.673 57.24C332.286 58.2533 331.593 59.8267 331.593 61.96C331.593 63.6667 332.02 65 332.873 65.96C333.78 66.8667 335.006 67.32 336.553 67.32ZM392.381 73C390.835 74.0667 389.021 74.8933 386.941 75.48C384.915 76.0667 382.888 76.36 380.861 76.36C371.581 76.3067 366.941 71.1867 366.941 61V41.32H360.941V32.52H366.941V23.32L379.581 21.88V32.52H389.341L387.981 41.32H379.581V60.84C379.581 62.8133 379.901 64.2267 380.541 65.08C381.181 65.9333 382.195 66.36 383.581 66.36C385.021 66.36 386.541 65.9067 388.141 65L392.381 73ZM413.594 31.16C416.528 31.16 419.168 31.5867 421.514 32.44C423.861 33.2933 426.074 34.6 428.154 36.36L422.714 43.88C420.048 41.8533 417.354 40.84 414.634 40.84C411.808 40.84 409.674 41.88 408.234 43.96C406.794 46.04 406.074 49.4 406.074 54.04C406.074 58.52 406.794 61.6933 408.234 63.56C409.674 65.4267 411.754 66.36 414.474 66.36C415.914 66.36 417.221 66.1467 418.394 65.72C419.568 65.24 420.981 64.4933 422.634 63.48L428.154 71.32C423.941 74.68 419.168 76.36 413.834 76.36C409.514 76.36 405.781 75.4533 402.634 73.64C399.488 71.7733 397.061 69.1867 395.354 65.88C393.648 62.52 392.794 58.6 392.794 54.12C392.794 49.64 393.648 45.6667 395.354 42.2C397.061 38.7333 399.488 36.04 402.634 34.12C405.781 32.1467 409.434 31.16 413.594 31.16ZM458.356 31.16C462.036 31.16 464.916 32.28 466.996 34.52C469.076 36.76 470.116 39.9067 470.116 43.96V75H457.476V46.12C457.476 43.9867 457.129 42.52 456.436 41.72C455.742 40.8667 454.756 40.44 453.476 40.44C450.916 40.44 448.462 42.2533 446.116 45.88V75H433.476V15.64L446.116 14.36V37.08C447.876 35.1067 449.742 33.64 451.716 32.68C453.689 31.6667 455.902 31.16 458.356 31.16Z" fill="#3B4249"/>
<circle cx="93" cy="272" r="50" fill="#00A860"/>
<path d="M233.776 284H230.464L229.6 272.804C229.24 268.412 229.036 265.04 228.988 262.688L223.624 281.192H220.42L214.768 262.652C214.768 265.652 214.612 269.12 214.3 273.056L213.472 284H210.232L212.284 259.196H216.892L222.112 277.232L227.08 259.196H231.724L233.776 284ZM242.752 265.028V284H239.44V265.028H242.752ZM241.06 255.92C241.756 255.92 242.32 256.136 242.752 256.568C243.184 257 243.4 257.54 243.4 258.188C243.4 258.836 243.184 259.376 242.752 259.808C242.32 260.216 241.756 260.42 241.06 260.42C240.388 260.42 239.836 260.216 239.404 259.808C238.972 259.376 238.756 258.836 238.756 258.188C238.756 257.54 238.972 257 239.404 256.568C239.836 256.136 240.388 255.92 241.06 255.92ZM258.528 264.596C260.256 264.596 261.6 265.112 262.56 266.144C263.544 267.176 264.036 268.592 264.036 270.392V284H260.724V270.86C260.724 269.516 260.472 268.568 259.968 268.016C259.464 267.464 258.72 267.188 257.736 267.188C256.728 267.188 255.84 267.476 255.072 268.052C254.304 268.628 253.584 269.456 252.912 270.536V284H249.6V265.028H252.444L252.732 267.836C253.404 266.828 254.232 266.036 255.216 265.46C256.224 264.884 257.328 264.596 258.528 264.596ZM280.269 283.136C279.021 284 277.605 284.432 276.021 284.432C274.413 284.432 273.153 283.976 272.241 283.064C271.353 282.128 270.909 280.784 270.909 279.032V267.584H267.597V265.028H270.909V260.744L274.221 260.348V265.028H278.721L278.361 267.584H274.221V278.888C274.221 279.872 274.389 280.592 274.725 281.048C275.085 281.48 275.673 281.696 276.489 281.696C277.233 281.696 278.073 281.444 279.009 280.94L280.269 283.136ZM298.593 259.196C302.337 259.196 305.337 260.072 307.593 261.824C309.873 263.552 311.013 266.768 311.013 271.472C311.013 276.056 309.873 279.296 307.593 281.192C305.337 283.064 302.589 284 299.349 284H293.409V259.196H298.593ZM296.829 261.932V281.3H299.601C301.905 281.3 303.777 280.592 305.217 279.176C306.657 277.76 307.377 275.192 307.377 271.472C307.377 268.856 307.005 266.852 306.261 265.46C305.517 264.044 304.569 263.108 303.417 262.652C302.265 262.172 300.909 261.932 299.349 261.932H296.829ZM328.825 279.572C328.825 280.34 328.957 280.916 329.221 281.3C329.485 281.66 329.881 281.936 330.409 282.128L329.653 284.432C328.669 284.312 327.877 284.036 327.277 283.604C326.677 283.172 326.233 282.5 325.945 281.588C324.673 283.484 322.789 284.432 320.293 284.432C318.421 284.432 316.945 283.904 315.865 282.848C314.785 281.792 314.245 280.412 314.245 278.708C314.245 276.692 314.965 275.144 316.405 274.064C317.869 272.984 319.933 272.444 322.597 272.444H325.513V271.04C325.513 269.696 325.189 268.736 324.541 268.16C323.893 267.584 322.897 267.296 321.553 267.296C320.161 267.296 318.457 267.632 316.441 268.304L315.613 265.892C317.965 265.028 320.149 264.596 322.165 264.596C324.397 264.596 326.065 265.148 327.169 266.252C328.273 267.332 328.825 268.88 328.825 270.896V279.572ZM321.049 281.948C322.945 281.948 324.433 280.964 325.513 278.996V274.64H323.029C319.525 274.64 317.773 275.936 317.773 278.528C317.773 279.656 318.049 280.508 318.601 281.084C319.153 281.66 319.969 281.948 321.049 281.948ZM343.871 264.596C344.543 264.596 345.167 264.668 345.743 264.812L345.131 268.052C344.555 267.908 344.003 267.836 343.475 267.836C342.299 267.836 341.351 268.268 340.631 269.132C339.911 269.996 339.347 271.34 338.939 273.164V284H335.627V265.028H338.471L338.795 268.88C339.299 267.464 339.983 266.396 340.847 265.676C341.711 264.956 342.719 264.596 343.871 264.596ZM352.826 257V284H349.514V257.396L352.826 257ZM363.734 265.028L356.75 273.416L364.526 284H360.566L353.042 273.632L360.026 265.028H363.734Z" fill="black"/>
<path d="M582.044 259.556C584.708 259.556 586.712 260.624 588.056 262.76C589.424 264.872 590.108 267.944 590.108 271.976C590.108 276.008 589.424 279.092 588.056 281.228C586.712 283.364 584.708 284.432 582.044 284.432C579.38 284.432 577.364 283.364 575.996 281.228C574.652 279.092 573.98 276.008 573.98 271.976C573.98 267.944 574.652 264.872 575.996 262.76C577.364 260.624 579.38 259.556 582.044 259.556ZM582.044 262.184C580.484 262.184 579.32 262.952 578.552 264.488C577.808 266.024 577.436 268.52 577.436 271.976C577.436 275.432 577.808 277.94 578.552 279.5C579.32 281.036 580.484 281.804 582.044 281.804C583.58 281.804 584.732 281.036 585.5 279.5C586.268 277.94 586.652 275.432 586.652 271.976C586.652 268.544 586.268 266.06 585.5 264.524C584.732 262.964 583.58 262.184 582.044 262.184ZM602.118 259.556C604.782 259.556 606.786 260.624 608.13 262.76C609.498 264.872 610.182 267.944 610.182 271.976C610.182 276.008 609.498 279.092 608.13 281.228C606.786 283.364 604.782 284.432 602.118 284.432C599.454 284.432 597.438 283.364 596.07 281.228C594.726 279.092 594.054 276.008 594.054 271.976C594.054 267.944 594.726 264.872 596.07 262.76C597.438 260.624 599.454 259.556 602.118 259.556ZM602.118 262.184C600.558 262.184 599.394 262.952 598.626 264.488C597.882 266.024 597.51 268.52 597.51 271.976C597.51 275.432 597.882 277.94 598.626 279.5C599.394 281.036 600.558 281.804 602.118 281.804C603.654 281.804 604.806 281.036 605.574 279.5C606.342 277.94 606.726 275.432 606.726 271.976C606.726 268.544 606.342 266.06 605.574 264.524C604.806 262.964 603.654 262.184 602.118 262.184ZM628.96 284L627.088 277.772H617.692L615.82 284H612.364L620.32 259.196H624.64L632.56 284H628.96ZM618.52 275H626.26L622.408 262.04L618.52 275ZM645.925 271.076C649.309 272.444 651.001 274.604 651.001 277.556C651.001 278.876 650.641 280.064 649.921 281.12C649.225 282.152 648.241 282.968 646.969 283.568C645.697 284.144 644.257 284.432 642.649 284.432C641.017 284.432 639.577 284.144 638.329 283.568C637.081 282.992 636.109 282.188 635.413 281.156C634.741 280.124 634.405 278.948 634.405 277.628C634.405 276.14 634.801 274.892 635.593 273.884C636.409 272.876 637.597 272.036 639.157 271.364C637.885 270.716 636.937 269.936 636.313 269.024C635.713 268.088 635.413 266.996 635.413 265.748C635.413 264.452 635.749 263.336 636.421 262.4C637.117 261.464 638.017 260.756 639.121 260.276C640.249 259.796 641.449 259.556 642.721 259.556C643.969 259.556 645.145 259.784 646.249 260.24C647.377 260.696 648.289 261.392 648.985 262.328C649.681 263.24 650.029 264.344 650.029 265.64C650.029 266.84 649.693 267.872 649.021 268.736C648.349 269.6 647.317 270.38 645.925 271.076ZM642.721 262.04C641.473 262.04 640.477 262.364 639.733 263.012C639.013 263.66 638.653 264.584 638.653 265.784C638.653 266.936 639.001 267.812 639.697 268.412C640.417 269.012 641.557 269.564 643.117 270.068L643.729 270.284C644.809 269.66 645.589 269 646.069 268.304C646.549 267.608 646.789 266.756 646.789 265.748C646.789 264.62 646.429 263.72 645.709 263.048C645.013 262.376 644.017 262.04 642.721 262.04ZM642.685 281.804C644.173 281.804 645.349 281.42 646.213 280.652C647.101 279.884 647.545 278.864 647.545 277.592C647.545 276.728 647.377 276.008 647.041 275.432C646.705 274.832 646.165 274.316 645.421 273.884C644.677 273.428 643.633 272.972 642.289 272.516L641.389 272.192C640.189 272.768 639.301 273.5 638.725 274.388C638.149 275.252 637.861 276.332 637.861 277.628C637.861 278.948 638.293 279.98 639.157 280.724C640.021 281.444 641.197 281.804 642.685 281.804ZM663.701 268.16C664.925 268.16 666.041 268.448 667.049 269.024C668.057 269.6 668.861 270.464 669.461 271.616C670.061 272.768 670.361 274.172 670.361 275.828C670.361 277.532 670.013 279.044 669.317 280.364C668.645 281.66 667.721 282.668 666.545 283.388C665.393 284.084 664.109 284.432 662.693 284.432C659.885 284.432 657.833 283.4 656.537 281.336C655.241 279.248 654.593 276.368 654.593 272.696C654.593 270.08 654.953 267.788 655.673 265.82C656.417 263.828 657.473 262.292 658.841 261.212C660.209 260.108 661.829 259.556 663.701 259.556C665.525 259.556 667.181 260.048 668.669 261.032L667.373 263.228C666.245 262.532 665.009 262.184 663.665 262.184C661.937 262.184 660.569 263.012 659.561 264.668C658.553 266.324 658.001 268.544 657.905 271.328C659.393 269.216 661.325 268.16 663.701 268.16ZM662.693 281.804C664.085 281.804 665.153 281.276 665.897 280.22C666.641 279.164 667.013 277.736 667.013 275.936C667.013 272.504 665.717 270.788 663.125 270.788C662.069 270.788 661.097 271.088 660.209 271.688C659.321 272.264 658.565 273.068 657.941 274.1C658.013 276.74 658.421 278.684 659.165 279.932C659.933 281.18 661.109 281.804 662.693 281.804ZM681.853 259.556C684.517 259.556 686.521 260.624 687.865 262.76C689.233 264.872 689.917 267.944 689.917 271.976C689.917 276.008 689.233 279.092 687.865 281.228C686.521 283.364 684.517 284.432 681.853 284.432C679.189 284.432 677.173 283.364 675.805 281.228C674.461 279.092 673.789 276.008 673.789 271.976C673.789 267.944 674.461 264.872 675.805 262.76C677.173 260.624 679.189 259.556 681.853 259.556ZM681.853 262.184C680.293 262.184 679.129 262.952 678.361 264.488C677.617 266.024 677.245 268.52 677.245 271.976C677.245 275.432 677.617 277.94 678.361 279.5C679.129 281.036 680.293 281.804 681.853 281.804C683.389 281.804 684.541 281.036 685.309 279.5C686.077 277.94 686.461 275.432 686.461 271.976C686.461 268.544 686.077 266.06 685.309 264.524C684.541 262.964 683.389 262.184 681.853 262.184Z" fill="black"/>
<path d="M233.776 404H230.464L229.6 392.804C229.24 388.412 229.036 385.04 228.988 382.688L223.624 401.192H220.42L214.768 382.652C214.768 385.652 214.612 389.12 214.3 393.056L213.472 404H210.232L212.284 379.196H216.892L222.112 397.232L227.08 379.196H231.724L233.776 404ZM242.752 385.028V404H239.44V385.028H242.752ZM241.06 375.92C241.756 375.92 242.32 376.136 242.752 376.568C243.184 377 243.4 377.54 243.4 378.188C243.4 378.836 243.184 379.376 242.752 379.808C242.32 380.216 241.756 380.42 241.06 380.42C240.388 380.42 239.836 380.216 239.404 379.808C238.972 379.376 238.756 378.836 238.756 378.188C238.756 377.54 238.972 377 239.404 376.568C239.836 376.136 240.388 375.92 241.06 375.92ZM258.528 384.596C260.256 384.596 261.6 385.112 262.56 386.144C263.544 387.176 264.036 388.592 264.036 390.392V404H260.724V390.86C260.724 389.516 260.472 388.568 259.968 388.016C259.464 387.464 258.72 387.188 257.736 387.188C256.728 387.188 255.84 387.476 255.072 388.052C254.304 388.628 253.584 389.456 252.912 390.536V404H249.6V385.028H252.444L252.732 387.836C253.404 386.828 254.232 386.036 255.216 385.46C256.224 384.884 257.328 384.596 258.528 384.596ZM280.269 403.136C279.021 404 277.605 404.432 276.021 404.432C274.413 404.432 273.153 403.976 272.241 403.064C271.353 402.128 270.909 400.784 270.909 399.032V387.584H267.597V385.028H270.909V380.744L274.221 380.348V385.028H278.721L278.361 387.584H274.221V398.888C274.221 399.872 274.389 400.592 274.725 401.048C275.085 401.48 275.673 401.696 276.489 401.696C277.233 401.696 278.073 401.444 279.009 400.94L280.269 403.136ZM296.829 379.196V401.012H307.017L306.621 404H293.409V379.196H296.829ZM314.47 385.028V404H311.158V385.028H314.47ZM312.778 375.92C313.474 375.92 314.038 376.136 314.47 376.568C314.902 377 315.118 377.54 315.118 378.188C315.118 378.836 314.902 379.376 314.47 379.808C314.038 380.216 313.474 380.42 312.778 380.42C312.106 380.42 311.554 380.216 311.122 379.808C310.69 379.376 310.474 378.836 310.474 378.188C310.474 377.54 310.69 377 311.122 376.568C311.554 376.136 312.106 375.92 312.778 375.92ZM336.618 385.892C335.898 386.132 335.106 386.288 334.242 386.36C333.378 386.432 332.322 386.468 331.074 386.468C333.306 387.476 334.422 389.072 334.422 391.256C334.422 393.152 333.774 394.7 332.478 395.9C331.182 397.1 329.418 397.7 327.186 397.7C326.322 397.7 325.518 397.58 324.774 397.34C324.486 397.532 324.258 397.796 324.09 398.132C323.922 398.444 323.838 398.768 323.838 399.104C323.838 400.136 324.666 400.652 326.322 400.652H329.346C330.618 400.652 331.746 400.88 332.73 401.336C333.714 401.792 334.47 402.416 334.998 403.208C335.55 404 335.826 404.9 335.826 405.908C335.826 407.756 335.07 409.172 333.558 410.156C332.046 411.164 329.838 411.668 326.934 411.668C324.894 411.668 323.274 411.452 322.074 411.02C320.898 410.612 320.058 409.988 319.554 409.148C319.05 408.308 318.798 407.228 318.798 405.908H321.786C321.786 406.676 321.93 407.276 322.218 407.708C322.506 408.164 323.022 408.5 323.766 408.716C324.51 408.956 325.566 409.076 326.934 409.076C328.926 409.076 330.342 408.824 331.182 408.32C332.046 407.84 332.478 407.108 332.478 406.124C332.478 405.236 332.142 404.564 331.47 404.108C330.798 403.652 329.862 403.424 328.662 403.424H325.674C324.066 403.424 322.842 403.088 322.002 402.416C321.186 401.72 320.778 400.856 320.778 399.824C320.778 399.2 320.958 398.6 321.318 398.024C321.678 397.448 322.194 396.932 322.866 396.476C321.762 395.9 320.946 395.192 320.418 394.352C319.914 393.488 319.662 392.444 319.662 391.22C319.662 389.948 319.974 388.808 320.598 387.8C321.246 386.792 322.122 386.012 323.226 385.46C324.354 384.884 325.602 384.596 326.97 384.596C328.458 384.62 329.706 384.572 330.714 384.452C331.722 384.308 332.55 384.128 333.198 383.912C333.87 383.672 334.686 383.336 335.646 382.904L336.618 385.892ZM326.97 386.972C325.722 386.972 324.75 387.368 324.054 388.16C323.382 388.928 323.046 389.948 323.046 391.22C323.046 392.516 323.394 393.56 324.09 394.352C324.786 395.12 325.77 395.504 327.042 395.504C328.338 395.504 329.322 395.132 329.994 394.388C330.69 393.62 331.038 392.552 331.038 391.184C331.038 388.376 329.682 386.972 326.97 386.972ZM348.95 384.596C350.678 384.596 352.022 385.112 352.982 386.144C353.966 387.176 354.458 388.592 354.458 390.392V404H351.146V390.86C351.146 389.516 350.882 388.568 350.354 388.016C349.85 387.464 349.106 387.188 348.122 387.188C347.138 387.188 346.262 387.476 345.494 388.052C344.726 388.628 344.006 389.444 343.334 390.5V404H340.022V377.432L343.334 377.072V387.656C344.822 385.616 346.694 384.596 348.95 384.596ZM370.691 403.136C369.443 404 368.027 404.432 366.443 404.432C364.835 404.432 363.575 403.976 362.663 403.064C361.775 402.128 361.331 400.784 361.331 399.032V387.584H358.019V385.028H361.331V380.744L364.643 380.348V385.028H369.143L368.783 387.584H364.643V398.888C364.643 399.872 364.811 400.592 365.147 401.048C365.507 401.48 366.095 401.696 366.911 401.696C367.655 401.696 368.495 401.444 369.431 400.94L370.691 403.136Z" fill="black"/>
<circle cx="93" cy="392" r="50" fill="#80D3AF"/>
<path d="M217.72 498.764C219.376 498.764 220.792 499.004 221.968 499.484C223.144 499.94 224.284 500.66 225.388 501.644L223.516 503.732C222.58 502.988 221.656 502.448 220.744 502.112C219.856 501.752 218.896 501.572 217.864 501.572C216.568 501.572 215.5 501.872 214.66 502.472C213.82 503.072 213.4 503.948 213.4 505.1C213.4 505.82 213.544 506.432 213.832 506.936C214.12 507.416 214.648 507.86 215.416 508.268C216.208 508.676 217.348 509.108 218.836 509.564C220.396 510.044 221.692 510.56 222.724 511.112C223.756 511.664 224.584 512.432 225.208 513.416C225.856 514.376 226.18 515.6 226.18 517.088C226.18 518.528 225.82 519.8 225.1 520.904C224.404 522.008 223.384 522.872 222.04 523.496C220.72 524.12 219.148 524.432 217.324 524.432C213.892 524.432 211.084 523.364 208.9 521.228L210.772 519.14C211.78 519.956 212.8 520.58 213.832 521.012C214.864 521.42 216.016 521.624 217.288 521.624C218.824 521.624 220.096 521.252 221.104 520.508C222.112 519.74 222.616 518.636 222.616 517.196C222.616 516.38 222.46 515.708 222.148 515.18C221.836 514.628 221.296 514.136 220.528 513.704C219.784 513.272 218.692 512.84 217.252 512.408C214.708 511.64 212.848 510.716 211.672 509.636C210.496 508.556 209.908 507.092 209.908 505.244C209.908 503.996 210.232 502.88 210.88 501.896C211.552 500.912 212.476 500.144 213.652 499.592C214.852 499.04 216.208 498.764 217.72 498.764ZM245.365 513.956C245.365 514.508 245.341 515.072 245.293 515.648H233.197C233.341 517.736 233.869 519.272 234.781 520.256C235.693 521.24 236.869 521.732 238.309 521.732C239.221 521.732 240.061 521.6 240.829 521.336C241.597 521.072 242.401 520.652 243.241 520.076L244.681 522.056C242.665 523.64 240.457 524.432 238.057 524.432C235.417 524.432 233.353 523.568 231.865 521.84C230.401 520.112 229.669 517.736 229.669 514.712C229.669 512.744 229.981 511.004 230.605 509.492C231.253 507.956 232.165 506.756 233.341 505.892C234.541 505.028 235.945 504.596 237.553 504.596C240.073 504.596 242.005 505.424 243.349 507.08C244.693 508.736 245.365 511.028 245.365 513.956ZM242.089 512.984C242.089 511.112 241.717 509.684 240.973 508.7C240.229 507.716 239.113 507.224 237.625 507.224C234.913 507.224 233.437 509.216 233.197 513.2H242.089V512.984ZM259.366 504.596C261.79 504.596 263.566 505.46 264.694 507.188C265.822 508.916 266.386 511.352 266.386 514.496C266.386 517.472 265.738 519.872 264.442 521.696C263.146 523.52 261.31 524.432 258.934 524.432C256.822 524.432 255.166 523.712 253.966 522.272V531.272L250.654 531.668V505.028H253.498L253.75 507.584C254.446 506.624 255.286 505.892 256.27 505.388C257.254 504.86 258.286 504.596 259.366 504.596ZM258.142 521.732C261.262 521.732 262.822 519.32 262.822 514.496C262.822 509.648 261.394 507.224 258.538 507.224C257.602 507.224 256.75 507.5 255.982 508.052C255.214 508.604 254.542 509.312 253.966 510.176V519.428C254.446 520.172 255.046 520.748 255.766 521.156C256.486 521.54 257.278 521.732 258.142 521.732ZM275.341 505.028V524H272.029V505.028H275.341ZM273.649 495.92C274.345 495.92 274.909 496.136 275.341 496.568C275.773 497 275.989 497.54 275.989 498.188C275.989 498.836 275.773 499.376 275.341 499.808C274.909 500.216 274.345 500.42 273.649 500.42C272.977 500.42 272.425 500.216 271.993 499.808C271.561 499.376 271.345 498.836 271.345 498.188C271.345 497.54 271.561 497 271.993 496.568C272.425 496.136 272.977 495.92 273.649 495.92ZM294.97 519.572C294.97 520.34 295.102 520.916 295.366 521.3C295.63 521.66 296.026 521.936 296.554 522.128L295.798 524.432C294.814 524.312 294.022 524.036 293.422 523.604C292.822 523.172 292.378 522.5 292.09 521.588C290.818 523.484 288.934 524.432 286.438 524.432C284.566 524.432 283.09 523.904 282.01 522.848C280.93 521.792 280.39 520.412 280.39 518.708C280.39 516.692 281.11 515.144 282.55 514.064C284.014 512.984 286.078 512.444 288.742 512.444H291.658V511.04C291.658 509.696 291.334 508.736 290.686 508.16C290.038 507.584 289.042 507.296 287.698 507.296C286.306 507.296 284.602 507.632 282.586 508.304L281.758 505.892C284.11 505.028 286.294 504.596 288.31 504.596C290.542 504.596 292.21 505.148 293.314 506.252C294.418 507.332 294.97 508.88 294.97 510.896V519.572ZM287.194 521.948C289.09 521.948 290.578 520.964 291.658 518.996V514.64H289.174C285.67 514.64 283.918 515.936 283.918 518.528C283.918 519.656 284.194 520.508 284.746 521.084C285.298 521.66 286.114 521.948 287.194 521.948Z" fill="black"/>
<path d="M585.14 391.076C588.524 392.444 590.216 394.604 590.216 397.556C590.216 398.876 589.856 400.064 589.136 401.12C588.44 402.152 587.456 402.968 586.184 403.568C584.912 404.144 583.472 404.432 581.864 404.432C580.232 404.432 578.792 404.144 577.544 403.568C576.296 402.992 575.324 402.188 574.628 401.156C573.956 400.124 573.62 398.948 573.62 397.628C573.62 396.14 574.016 394.892 574.808 393.884C575.624 392.876 576.812 392.036 578.372 391.364C577.1 390.716 576.152 389.936 575.528 389.024C574.928 388.088 574.628 386.996 574.628 385.748C574.628 384.452 574.964 383.336 575.636 382.4C576.332 381.464 577.232 380.756 578.336 380.276C579.464 379.796 580.664 379.556 581.936 379.556C583.184 379.556 584.36 379.784 585.464 380.24C586.592 380.696 587.504 381.392 588.2 382.328C588.896 383.24 589.244 384.344 589.244 385.64C589.244 386.84 588.908 387.872 588.236 388.736C587.564 389.6 586.532 390.38 585.14 391.076ZM581.936 382.04C580.688 382.04 579.692 382.364 578.948 383.012C578.228 383.66 577.868 384.584 577.868 385.784C577.868 386.936 578.216 387.812 578.912 388.412C579.632 389.012 580.772 389.564 582.332 390.068L582.944 390.284C584.024 389.66 584.804 389 585.284 388.304C585.764 387.608 586.004 386.756 586.004 385.748C586.004 384.62 585.644 383.72 584.924 383.048C584.228 382.376 583.232 382.04 581.936 382.04ZM581.9 401.804C583.388 401.804 584.564 401.42 585.428 400.652C586.316 399.884 586.76 398.864 586.76 397.592C586.76 396.728 586.592 396.008 586.256 395.432C585.92 394.832 585.38 394.316 584.636 393.884C583.892 393.428 582.848 392.972 581.504 392.516L580.604 392.192C579.404 392.768 578.516 393.5 577.94 394.388C577.364 395.252 577.076 396.332 577.076 397.628C577.076 398.948 577.508 399.98 578.372 400.724C579.236 401.444 580.412 401.804 581.9 401.804ZM601.872 379.556C604.536 379.556 606.54 380.624 607.884 382.76C609.252 384.872 609.936 387.944 609.936 391.976C609.936 396.008 609.252 399.092 607.884 401.228C606.54 403.364 604.536 404.432 601.872 404.432C599.208 404.432 597.192 403.364 595.824 401.228C594.48 399.092 593.808 396.008 593.808 391.976C593.808 387.944 594.48 384.872 595.824 382.76C597.192 380.624 599.208 379.556 601.872 379.556ZM601.872 382.184C600.312 382.184 599.148 382.952 598.38 384.488C597.636 386.024 597.264 388.52 597.264 391.976C597.264 395.432 597.636 397.94 598.38 399.5C599.148 401.036 600.312 401.804 601.872 401.804C603.408 401.804 604.56 401.036 605.328 399.5C606.096 397.94 606.48 395.432 606.48 391.976C606.48 388.544 606.096 386.06 605.328 384.524C604.56 382.964 603.408 382.184 601.872 382.184ZM620.686 379.196C624.43 379.196 627.43 380.072 629.686 381.824C631.966 383.552 633.106 386.768 633.106 391.472C633.106 396.056 631.966 399.296 629.686 401.192C627.43 403.064 624.682 404 621.442 404H615.502V379.196H620.686ZM618.922 381.932V401.3H621.694C623.998 401.3 625.87 400.592 627.31 399.176C628.75 397.76 629.47 395.192 629.47 391.472C629.47 388.856 629.098 386.852 628.354 385.46C627.61 384.044 626.662 383.108 625.51 382.652C624.358 382.172 623.002 381.932 621.442 381.932H618.922ZM642.467 379.556C643.955 379.556 645.227 379.832 646.283 380.384C647.363 380.936 648.179 381.68 648.731 382.616C649.307 383.552 649.595 384.572 649.595 385.676C649.595 387.14 649.163 388.352 648.299 389.312C647.459 390.248 646.331 390.884 644.915 391.22C646.523 391.364 647.831 391.94 648.839 392.948C649.847 393.956 650.351 395.324 650.351 397.052C650.351 398.444 650.015 399.704 649.343 400.832C648.671 401.96 647.711 402.848 646.463 403.496C645.215 404.12 643.775 404.432 642.143 404.432C640.679 404.432 639.335 404.168 638.111 403.64C636.887 403.088 635.819 402.272 634.907 401.192L636.887 399.356C637.679 400.172 638.483 400.772 639.299 401.156C640.139 401.54 641.051 401.732 642.035 401.732C643.547 401.732 644.735 401.312 645.599 400.472C646.463 399.608 646.895 398.456 646.895 397.016C646.895 395.432 646.487 394.316 645.671 393.668C644.855 393.02 643.667 392.696 642.107 392.696H640.307L640.703 390.14H641.927C643.175 390.14 644.207 389.768 645.023 389.024C645.863 388.28 646.283 387.236 646.283 385.892C646.283 384.764 645.923 383.876 645.203 383.228C644.483 382.556 643.511 382.22 642.287 382.22C641.351 382.22 640.487 382.388 639.695 382.724C638.927 383.06 638.135 383.612 637.319 384.38L635.591 382.4C637.631 380.504 639.923 379.556 642.467 379.556ZM669.144 404L667.272 397.772H657.876L656.004 404H652.548L660.504 379.196H664.824L672.744 404H669.144ZM658.704 395H666.444L662.592 382.04L658.704 395ZM676.569 404V379.196H689.745L689.349 381.932H679.989V390.392H688.089V393.092H679.989V404H676.569Z" fill="black"/>
<path d="M236.836 619.196L231.796 644H227.404L222.832 623.228L218.224 644H213.94L208.9 619.196H212.248L216.244 641.012L221.032 619.196H224.668L229.564 641.012L233.704 619.196H236.836ZM250.09 624.596C251.818 624.596 253.162 625.112 254.122 626.144C255.106 627.176 255.598 628.592 255.598 630.392V644H252.286V630.86C252.286 629.516 252.022 628.568 251.494 628.016C250.99 627.464 250.246 627.188 249.262 627.188C248.278 627.188 247.402 627.476 246.634 628.052C245.866 628.628 245.146 629.444 244.474 630.5V644H241.162V617.432L244.474 617.072V627.656C245.962 625.616 247.834 624.596 250.09 624.596ZM265.568 625.028V644H262.256V625.028H265.568ZM263.876 615.92C264.572 615.92 265.136 616.136 265.568 616.568C266 617 266.216 617.54 266.216 618.188C266.216 618.836 266 619.376 265.568 619.808C265.136 620.216 264.572 620.42 263.876 620.42C263.204 620.42 262.652 620.216 262.22 619.808C261.788 619.376 261.572 618.836 261.572 618.188C261.572 617.54 261.788 617 262.22 616.568C262.652 616.136 263.204 615.92 263.876 615.92ZM281.992 643.136C280.744 644 279.328 644.432 277.744 644.432C276.136 644.432 274.876 643.976 273.964 643.064C273.076 642.128 272.632 640.784 272.632 639.032V627.584H269.32V625.028H272.632V620.744L275.944 620.348V625.028H280.444L280.084 627.584H275.944V638.888C275.944 639.872 276.112 640.592 276.448 641.048C276.808 641.48 277.396 641.696 278.212 641.696C278.956 641.696 279.796 641.444 280.732 640.94L281.992 643.136ZM299.225 633.956C299.225 634.508 299.201 635.072 299.153 635.648H287.057C287.201 637.736 287.729 639.272 288.641 640.256C289.553 641.24 290.729 641.732 292.169 641.732C293.081 641.732 293.921 641.6 294.689 641.336C295.457 641.072 296.261 640.652 297.101 640.076L298.541 642.056C296.525 643.64 294.317 644.432 291.917 644.432C289.277 644.432 287.213 643.568 285.725 641.84C284.261 640.112 283.529 637.736 283.529 634.712C283.529 632.744 283.841 631.004 284.465 629.492C285.113 627.956 286.025 626.756 287.201 625.892C288.401 625.028 289.805 624.596 291.413 624.596C293.933 624.596 295.865 625.424 297.209 627.08C298.553 628.736 299.225 631.028 299.225 633.956ZM295.949 632.984C295.949 631.112 295.577 629.684 294.833 628.7C294.089 627.716 292.973 627.224 291.485 627.224C288.773 627.224 287.297 629.216 287.057 633.2H295.949V632.984Z" fill="black"/>
<circle cx="93" cy="512" r="50" fill="#F4F0E5"/>
<path d="M224.812 764L222.94 757.772H213.544L211.672 764H208.216L216.172 739.196H220.492L228.412 764H224.812ZM214.372 755H222.112L218.26 742.04L214.372 755ZM235.837 764.432C234.613 764.432 233.641 764.072 232.921 763.352C232.225 762.608 231.877 761.576 231.877 760.256V737.396L235.189 737V760.184C235.189 760.712 235.273 761.096 235.441 761.336C235.633 761.576 235.945 761.696 236.377 761.696C236.833 761.696 237.241 761.624 237.601 761.48L238.465 763.784C237.673 764.216 236.797 764.432 235.837 764.432ZM255.208 759.572C255.208 760.34 255.34 760.916 255.604 761.3C255.868 761.66 256.264 761.936 256.792 762.128L256.036 764.432C255.052 764.312 254.26 764.036 253.66 763.604C253.06 763.172 252.616 762.5 252.328 761.588C251.056 763.484 249.172 764.432 246.676 764.432C244.804 764.432 243.328 763.904 242.248 762.848C241.168 761.792 240.628 760.412 240.628 758.708C240.628 756.692 241.348 755.144 242.788 754.064C244.252 752.984 246.316 752.444 248.98 752.444H251.896V751.04C251.896 749.696 251.572 748.736 250.924 748.16C250.276 747.584 249.28 747.296 247.936 747.296C246.544 747.296 244.84 747.632 242.824 748.304L241.996 745.892C244.348 745.028 246.532 744.596 248.548 744.596C250.78 744.596 252.448 745.148 253.552 746.252C254.656 747.332 255.208 748.88 255.208 750.896V759.572ZM247.432 761.948C249.328 761.948 250.816 760.964 251.896 758.996V754.64H249.412C245.908 754.64 244.156 755.936 244.156 758.528C244.156 759.656 244.432 760.508 244.984 761.084C245.536 761.66 246.352 761.948 247.432 761.948ZM270.254 744.596C270.926 744.596 271.55 744.668 272.126 744.812L271.514 748.052C270.938 747.908 270.386 747.836 269.858 747.836C268.682 747.836 267.734 748.268 267.014 749.132C266.294 749.996 265.73 751.34 265.322 753.164V764H262.01V745.028H264.854L265.178 748.88C265.682 747.464 266.366 746.396 267.23 745.676C268.094 744.956 269.102 744.596 270.254 744.596ZM294.941 744.596C296.501 744.596 297.749 745.124 298.685 746.18C299.621 747.212 300.089 748.616 300.089 750.392V764H296.777V750.86C296.777 748.412 295.889 747.188 294.113 747.188C293.177 747.188 292.385 747.464 291.737 748.016C291.089 748.544 290.393 749.384 289.649 750.536V764H286.337V750.86C286.337 748.412 285.449 747.188 283.673 747.188C282.713 747.188 281.909 747.464 281.261 748.016C280.613 748.568 279.929 749.408 279.209 750.536V764H275.897V745.028H278.741L279.029 747.8C280.445 745.664 282.269 744.596 284.501 744.596C285.677 744.596 286.673 744.896 287.489 745.496C288.329 746.096 288.929 746.936 289.289 748.016C290.033 746.912 290.849 746.072 291.737 745.496C292.649 744.896 293.717 744.596 294.941 744.596ZM310.076 745.028V764H306.764V745.028H310.076ZM308.384 735.92C309.08 735.92 309.644 736.136 310.076 736.568C310.508 737 310.724 737.54 310.724 738.188C310.724 738.836 310.508 739.376 310.076 739.808C309.644 740.216 309.08 740.42 308.384 740.42C307.712 740.42 307.16 740.216 306.728 739.808C306.296 739.376 306.08 738.836 306.08 738.188C306.08 737.54 306.296 737 306.728 736.568C307.16 736.136 307.712 735.92 308.384 735.92ZM325.852 744.596C327.58 744.596 328.924 745.112 329.884 746.144C330.868 747.176 331.36 748.592 331.36 750.392V764H328.048V750.86C328.048 749.516 327.796 748.568 327.292 748.016C326.788 747.464 326.044 747.188 325.06 747.188C324.052 747.188 323.164 747.476 322.396 748.052C321.628 748.628 320.908 749.456 320.236 750.536V764H316.924V745.028H319.768L320.056 747.836C320.728 746.828 321.556 746.036 322.54 745.46C323.548 744.884 324.652 744.596 325.852 744.596ZM353.318 745.892C352.598 746.132 351.806 746.288 350.942 746.36C350.078 746.432 349.022 746.468 347.774 746.468C350.006 747.476 351.122 749.072 351.122 751.256C351.122 753.152 350.474 754.7 349.178 755.9C347.882 757.1 346.118 757.7 343.886 757.7C343.022 757.7 342.218 757.58 341.474 757.34C341.186 757.532 340.958 757.796 340.79 758.132C340.622 758.444 340.538 758.768 340.538 759.104C340.538 760.136 341.366 760.652 343.022 760.652H346.046C347.318 760.652 348.446 760.88 349.43 761.336C350.414 761.792 351.17 762.416 351.698 763.208C352.25 764 352.526 764.9 352.526 765.908C352.526 767.756 351.77 769.172 350.258 770.156C348.746 771.164 346.538 771.668 343.634 771.668C341.594 771.668 339.974 771.452 338.774 771.02C337.598 770.612 336.758 769.988 336.254 769.148C335.75 768.308 335.498 767.228 335.498 765.908H338.486C338.486 766.676 338.63 767.276 338.918 767.708C339.206 768.164 339.722 768.5 340.466 768.716C341.21 768.956 342.266 769.076 343.634 769.076C345.626 769.076 347.042 768.824 347.882 768.32C348.746 767.84 349.178 767.108 349.178 766.124C349.178 765.236 348.842 764.564 348.17 764.108C347.498 763.652 346.562 763.424 345.362 763.424H342.374C340.766 763.424 339.542 763.088 338.702 762.416C337.886 761.72 337.478 760.856 337.478 759.824C337.478 759.2 337.658 758.6 338.018 758.024C338.378 757.448 338.894 756.932 339.566 756.476C338.462 755.9 337.646 755.192 337.118 754.352C336.614 753.488 336.362 752.444 336.362 751.22C336.362 749.948 336.674 748.808 337.298 747.8C337.946 746.792 338.822 746.012 339.926 745.46C341.054 744.884 342.302 744.596 343.67 744.596C345.158 744.62 346.406 744.572 347.414 744.452C348.422 744.308 349.25 744.128 349.898 743.912C350.57 743.672 351.386 743.336 352.346 742.904L353.318 745.892ZM343.67 746.972C342.422 746.972 341.45 747.368 340.754 748.16C340.082 748.928 339.746 749.948 339.746 751.22C339.746 752.516 340.094 753.56 340.79 754.352C341.486 755.12 342.47 755.504 343.742 755.504C345.038 755.504 346.022 755.132 346.694 754.388C347.39 753.62 347.738 752.552 347.738 751.184C347.738 748.376 346.382 746.972 343.67 746.972ZM373.7 753.488H369.848V764H366.428V739.196H372.944C376.04 739.196 378.38 739.784 379.964 740.96C381.572 742.136 382.376 743.888 382.376 746.216C382.376 747.944 381.932 749.348 381.044 750.428C380.156 751.508 378.812 752.324 377.012 752.876L383.708 764H379.64L373.7 753.488ZM373.304 750.86C375.104 750.86 376.46 750.5 377.372 749.78C378.284 749.036 378.74 747.848 378.74 746.216C378.74 744.68 378.272 743.576 377.336 742.904C376.424 742.208 374.948 741.86 372.908 741.86H369.848V750.86H373.304ZM401.846 753.956C401.846 754.508 401.822 755.072 401.774 755.648H389.678C389.822 757.736 390.35 759.272 391.262 760.256C392.174 761.24 393.35 761.732 394.79 761.732C395.702 761.732 396.542 761.6 397.31 761.336C398.078 761.072 398.882 760.652 399.722 760.076L401.162 762.056C399.146 763.64 396.938 764.432 394.538 764.432C391.898 764.432 389.834 763.568 388.346 761.84C386.882 760.112 386.15 757.736 386.15 754.712C386.15 752.744 386.462 751.004 387.086 749.492C387.734 747.956 388.646 746.756 389.822 745.892C391.022 745.028 392.426 744.596 394.034 744.596C396.554 744.596 398.486 745.424 399.83 747.08C401.174 748.736 401.846 751.028 401.846 753.956ZM398.57 752.984C398.57 751.112 398.198 749.684 397.454 748.7C396.71 747.716 395.594 747.224 394.106 747.224C391.394 747.224 389.918 749.216 389.678 753.2H398.57V752.984ZM421.823 737.396V764H418.907L418.583 761.372C417.959 762.332 417.179 763.088 416.243 763.64C415.307 764.168 414.263 764.432 413.111 764.432C410.855 764.432 409.091 763.544 407.819 761.768C406.571 759.992 405.947 757.604 405.947 754.604C405.947 752.66 406.247 750.932 406.847 749.42C407.447 747.908 408.311 746.732 409.439 745.892C410.567 745.028 411.887 744.596 413.399 744.596C415.343 744.596 417.047 745.376 418.511 746.936V737L421.823 737.396ZM413.831 761.804C414.839 761.804 415.703 761.576 416.423 761.12C417.143 760.64 417.839 759.932 418.511 758.996V749.708C417.887 748.892 417.215 748.28 416.495 747.872C415.799 747.44 415.007 747.224 414.119 747.224C412.655 747.224 411.515 747.836 410.699 749.06C409.907 750.284 409.511 752.108 409.511 754.532C409.511 756.98 409.883 758.804 410.627 760.004C411.371 761.204 412.439 761.804 413.831 761.804Z" fill="black"/>
<path d="M575.6 524V499.196H588.776L588.38 501.932H579.02V510.392H587.12V513.092H579.02V524H575.6ZM606.314 515.432V518.06H603.182V524H599.978V518.06H589.682V515.684L596.918 499.556L599.69 500.708L593.174 515.432H600.014L600.302 508.952H603.182V515.432H606.314ZM611.002 524V499.196H624.178L623.782 501.932H614.422V510.392H622.522V513.092H614.422V524H611.002ZM634.778 499.556C637.442 499.556 639.446 500.624 640.79 502.76C642.158 504.872 642.842 507.944 642.842 511.976C642.842 516.008 642.158 519.092 640.79 521.228C639.446 523.364 637.442 524.432 634.778 524.432C632.114 524.432 630.098 523.364 628.73 521.228C627.386 519.092 626.714 516.008 626.714 511.976C626.714 507.944 627.386 504.872 628.73 502.76C630.098 500.624 632.114 499.556 634.778 499.556ZM634.778 502.184C633.218 502.184 632.054 502.952 631.286 504.488C630.542 506.024 630.17 508.52 630.17 511.976C630.17 515.432 630.542 517.94 631.286 519.5C632.054 521.036 633.218 521.804 634.778 521.804C636.314 521.804 637.466 521.036 638.234 519.5C639.002 517.94 639.386 515.432 639.386 511.976C639.386 508.544 639.002 506.06 638.234 504.524C637.466 502.964 636.314 502.184 634.778 502.184ZM661.837 499.196L661.441 501.932H651.829V510.032H660.181V512.768H651.829V521.264H662.125V524H648.409V499.196H661.837ZM679.194 502.508H669.798V509.6C671.022 508.976 672.306 508.664 673.65 508.664C675.714 508.664 677.37 509.348 678.618 510.716C679.866 512.06 680.49 513.92 680.49 516.296C680.49 517.88 680.142 519.296 679.446 520.544C678.75 521.768 677.766 522.728 676.494 523.424C675.246 524.096 673.794 524.432 672.138 524.432C670.674 524.432 669.366 524.18 668.214 523.676C667.062 523.148 665.994 522.38 665.01 521.372L666.954 519.464C667.722 520.232 668.514 520.808 669.33 521.192C670.146 521.552 671.07 521.732 672.102 521.732C673.638 521.732 674.838 521.252 675.702 520.292C676.59 519.332 677.034 517.976 677.034 516.224C677.034 514.472 676.638 513.2 675.846 512.408C675.054 511.616 673.986 511.22 672.642 511.22C672.018 511.22 671.442 511.292 670.914 511.436C670.386 511.556 669.822 511.76 669.222 512.048H666.63V499.916H679.662L679.194 502.508Z" fill="black"/>
<path d="M220.744 858.764C222.304 858.764 223.648 858.992 224.776 859.448C225.928 859.88 227.068 860.564 228.196 861.5L226.18 863.588C225.292 862.868 224.44 862.352 223.624 862.04C222.808 861.728 221.848 861.572 220.744 861.572C219.472 861.572 218.296 861.92 217.216 862.616C216.16 863.288 215.296 864.38 214.624 865.892C213.952 867.38 213.616 869.276 213.616 871.58C213.616 875.06 214.18 877.604 215.308 879.212C216.46 880.82 218.152 881.624 220.384 881.624C222.208 881.624 223.78 881.252 225.1 880.508V873.02H220.708L220.312 870.248H228.484V882.236C225.916 883.7 223.216 884.432 220.384 884.432C217.12 884.432 214.564 883.34 212.716 881.156C210.892 878.972 209.98 875.78 209.98 871.58C209.98 868.892 210.46 866.588 211.42 864.668C212.404 862.724 213.712 861.26 215.344 860.276C217 859.268 218.8 858.764 220.744 858.764ZM242.375 864.596C243.047 864.596 243.671 864.668 244.247 864.812L243.635 868.052C243.059 867.908 242.507 867.836 241.979 867.836C240.803 867.836 239.855 868.268 239.135 869.132C238.415 869.996 237.851 871.34 237.443 873.164V884H234.131V865.028H236.975L237.299 868.88C237.803 867.464 238.487 866.396 239.351 865.676C240.215 864.956 241.223 864.596 242.375 864.596ZM261.256 873.956C261.256 874.508 261.232 875.072 261.184 875.648H249.088C249.232 877.736 249.76 879.272 250.672 880.256C251.584 881.24 252.76 881.732 254.2 881.732C255.112 881.732 255.952 881.6 256.72 881.336C257.488 881.072 258.292 880.652 259.132 880.076L260.572 882.056C258.556 883.64 256.348 884.432 253.948 884.432C251.308 884.432 249.244 883.568 247.756 881.84C246.292 880.112 245.56 877.736 245.56 874.712C245.56 872.744 245.872 871.004 246.496 869.492C247.144 867.956 248.056 866.756 249.232 865.892C250.432 865.028 251.836 864.596 253.444 864.596C255.964 864.596 257.896 865.424 259.24 867.08C260.584 868.736 261.256 871.028 261.256 873.956ZM257.98 872.984C257.98 871.112 257.608 869.684 256.864 868.7C256.12 867.716 255.004 867.224 253.516 867.224C250.804 867.224 249.328 869.216 249.088 873.2H257.98V872.984ZM274 884.108C273.256 886.316 272.212 888.056 270.868 889.328C269.548 890.624 267.652 891.404 265.18 891.668L264.82 889.076C266.068 888.86 267.064 888.548 267.808 888.14C268.552 887.732 269.14 887.204 269.572 886.556C270.028 885.932 270.448 885.08 270.832 884H269.716L263.344 865.028H266.872L271.948 881.588L276.916 865.028H280.336L274 884.108Z" fill="black"/>
<circle cx="93" cy="632" r="50" fill="white"/>
<path d="M224.812 1004L222.94 997.772H213.544L211.672 1004H208.216L216.172 979.196H220.492L228.412 1004H224.812ZM214.372 995H222.112L218.26 982.04L214.372 995ZM237.205 984.596C238.501 984.596 239.665 984.776 240.697 985.136C241.729 985.496 242.713 986.036 243.649 986.756L242.245 988.844C241.381 988.292 240.553 987.884 239.761 987.62C238.993 987.356 238.177 987.224 237.313 987.224C236.233 987.224 235.381 987.452 234.757 987.908C234.133 988.34 233.821 988.94 233.821 989.708C233.821 990.476 234.109 991.076 234.685 991.508C235.285 991.94 236.353 992.36 237.889 992.768C240.001 993.296 241.573 994.016 242.605 994.928C243.661 995.84 244.189 997.088 244.189 998.672C244.189 1000.54 243.457 1001.97 241.993 1002.96C240.553 1003.94 238.789 1004.43 236.701 1004.43C233.821 1004.43 231.433 1003.6 229.537 1001.95L231.301 999.932C232.909 1001.16 234.685 1001.77 236.629 1001.77C237.877 1001.77 238.861 1001.52 239.581 1001.01C240.325 1000.48 240.697 999.776 240.697 998.888C240.697 998.24 240.565 997.724 240.301 997.34C240.037 996.932 239.581 996.584 238.933 996.296C238.285 995.984 237.337 995.66 236.089 995.324C234.073 994.796 232.609 994.088 231.697 993.2C230.809 992.312 230.365 991.184 230.365 989.816C230.365 988.832 230.653 987.944 231.229 987.152C231.829 986.336 232.645 985.712 233.677 985.28C234.733 984.824 235.909 984.596 237.205 984.596ZM257.789 984.596C259.517 984.596 260.861 985.112 261.821 986.144C262.805 987.176 263.297 988.592 263.297 990.392V1004H259.985V990.86C259.985 989.516 259.721 988.568 259.193 988.016C258.689 987.464 257.945 987.188 256.961 987.188C255.977 987.188 255.101 987.476 254.333 988.052C253.565 988.628 252.845 989.444 252.173 990.5V1004H248.861V977.432L252.173 977.072V987.656C253.661 985.616 255.533 984.596 257.789 984.596ZM290.607 990.896C292.311 991.184 293.691 991.784 294.747 992.696C295.803 993.608 296.331 995.024 296.331 996.944C296.331 1001.65 293.055 1004 286.503 1004H279.663V979.196H285.531C288.675 979.196 291.075 979.712 292.731 980.744C294.411 981.776 295.251 983.348 295.251 985.46C295.251 986.9 294.795 988.1 293.883 989.06C292.995 990.02 291.903 990.632 290.607 990.896ZM283.083 981.896V989.708H286.827C288.267 989.708 289.443 989.36 290.355 988.664C291.291 987.968 291.759 986.984 291.759 985.712C291.759 984.272 291.267 983.276 290.283 982.724C289.323 982.172 287.859 981.896 285.891 981.896H283.083ZM286.503 1001.26C288.519 1001.26 290.055 1000.96 291.111 1000.36C292.191 999.764 292.731 998.624 292.731 996.944C292.731 995.312 292.215 994.136 291.183 993.416C290.151 992.696 288.807 992.336 287.151 992.336H283.083V1001.26H286.503ZM305.165 1004.43C303.941 1004.43 302.969 1004.07 302.249 1003.35C301.553 1002.61 301.205 1001.58 301.205 1000.26V977.396L304.517 977V1000.18C304.517 1000.71 304.601 1001.1 304.769 1001.34C304.961 1001.58 305.273 1001.7 305.705 1001.7C306.161 1001.7 306.569 1001.62 306.929 1001.48L307.793 1003.78C307.001 1004.22 306.125 1004.43 305.165 1004.43ZM324.536 999.572C324.536 1000.34 324.668 1000.92 324.932 1001.3C325.196 1001.66 325.592 1001.94 326.12 1002.13L325.364 1004.43C324.38 1004.31 323.588 1004.04 322.988 1003.6C322.388 1003.17 321.944 1002.5 321.656 1001.59C320.384 1003.48 318.5 1004.43 316.004 1004.43C314.132 1004.43 312.656 1003.9 311.576 1002.85C310.496 1001.79 309.956 1000.41 309.956 998.708C309.956 996.692 310.676 995.144 312.116 994.064C313.58 992.984 315.644 992.444 318.308 992.444H321.224V991.04C321.224 989.696 320.9 988.736 320.252 988.16C319.604 987.584 318.608 987.296 317.264 987.296C315.872 987.296 314.168 987.632 312.152 988.304L311.324 985.892C313.676 985.028 315.86 984.596 317.876 984.596C320.108 984.596 321.776 985.148 322.88 986.252C323.984 987.332 324.536 988.88 324.536 990.896V999.572ZM316.76 1001.95C318.656 1001.95 320.144 1000.96 321.224 998.996V994.64H318.74C315.236 994.64 313.484 995.936 313.484 998.528C313.484 999.656 313.76 1000.51 314.312 1001.08C314.864 1001.66 315.68 1001.95 316.76 1001.95ZM338.25 984.596C339.378 984.596 340.41 984.764 341.346 985.1C342.282 985.412 343.182 985.928 344.046 986.648L342.462 988.736C341.79 988.256 341.13 987.908 340.482 987.692C339.858 987.452 339.162 987.332 338.394 987.332C336.858 987.332 335.658 987.944 334.794 989.168C333.954 990.392 333.534 992.204 333.534 994.604C333.534 997.004 333.954 998.78 334.794 999.932C335.634 1001.06 336.834 1001.62 338.394 1001.62C339.138 1001.62 339.822 1001.52 340.446 1001.3C341.07 1001.06 341.766 1000.69 342.534 1000.18L344.046 1002.34C342.318 1003.74 340.386 1004.43 338.25 1004.43C335.682 1004.43 333.654 1003.57 332.166 1001.84C330.702 1000.11 329.97 997.724 329.97 994.676C329.97 992.66 330.306 990.896 330.978 989.384C331.65 987.872 332.598 986.696 333.822 985.856C335.07 985.016 336.546 984.596 338.25 984.596ZM351.841 977V1004H348.529V977.396L351.841 977ZM362.749 985.028L355.765 993.416L363.541 1004H359.581L352.057 993.632L359.041 985.028H362.749Z" fill="black"/>
<path d="M575.6 644V619.196H588.776L588.38 621.932H579.02V630.392H587.12V633.092H579.02V644H575.6ZM593.284 644V619.196H606.46L606.064 621.932H596.704V630.392H604.804V633.092H596.704V644H593.284ZM610.967 644V619.196H624.143L623.747 621.932H614.387V630.392H622.487V633.092H614.387V644H610.967ZM628.651 644V619.196H641.827L641.431 621.932H632.071V630.392H640.171V633.092H632.071V644H628.651ZM646.334 644V619.196H659.51L659.114 621.932H649.754V630.392H657.854V633.092H649.754V644H646.334ZM664.018 644V619.196H677.194L676.798 621.932H667.438V630.392H675.538V633.092H667.438V644H664.018Z" fill="black"/>
<path d="M222.544 1110.9C224.248 1111.18 225.628 1111.78 226.684 1112.7C227.74 1113.61 228.268 1115.02 228.268 1116.94C228.268 1121.65 224.992 1124 218.44 1124H211.6V1099.2H217.468C220.612 1099.2 223.012 1099.71 224.668 1100.74C226.348 1101.78 227.188 1103.35 227.188 1105.46C227.188 1106.9 226.732 1108.1 225.82 1109.06C224.932 1110.02 223.84 1110.63 222.544 1110.9ZM215.02 1101.9V1109.71H218.764C220.204 1109.71 221.38 1109.36 222.292 1108.66C223.228 1107.97 223.696 1106.98 223.696 1105.71C223.696 1104.27 223.204 1103.28 222.22 1102.72C221.26 1102.17 219.796 1101.9 217.828 1101.9H215.02ZM218.44 1121.26C220.456 1121.26 221.992 1120.96 223.048 1120.36C224.128 1119.76 224.668 1118.62 224.668 1116.94C224.668 1115.31 224.152 1114.14 223.12 1113.42C222.088 1112.7 220.744 1112.34 219.088 1112.34H215.02V1121.26H218.44ZM236.922 1099.2V1121.01H247.11L246.714 1124H233.502V1099.2H236.922ZM264.644 1124L262.772 1117.77H253.376L251.504 1124H248.048L256.004 1099.2H260.324L268.244 1124H264.644ZM254.204 1115H261.944L258.092 1102.04L254.204 1115ZM280.393 1098.76C281.881 1098.76 283.129 1098.96 284.137 1099.34C285.169 1099.72 286.213 1100.35 287.269 1101.21L285.397 1103.41C283.885 1102.18 282.289 1101.57 280.609 1101.57C278.545 1101.57 276.877 1102.36 275.605 1103.95C274.357 1105.53 273.733 1108.08 273.733 1111.58C273.733 1114.99 274.357 1117.51 275.605 1119.14C276.853 1120.75 278.509 1121.55 280.573 1121.55C281.629 1121.55 282.553 1121.37 283.345 1121.01C284.137 1120.65 284.977 1120.15 285.865 1119.5L287.557 1121.66C286.789 1122.45 285.805 1123.11 284.605 1123.64C283.405 1124.17 282.025 1124.43 280.465 1124.43C278.449 1124.43 276.649 1123.94 275.065 1122.96C273.505 1121.95 272.281 1120.48 271.393 1118.56C270.529 1116.62 270.097 1114.29 270.097 1111.58C270.097 1108.87 270.553 1106.55 271.465 1104.63C272.377 1102.69 273.613 1101.22 275.173 1100.24C276.733 1099.26 278.473 1098.76 280.393 1098.76ZM295.282 1099.2V1124H291.862V1099.2H295.282ZM308.782 1099.2L299.386 1110.54L309.466 1124H305.254L295.462 1110.75L304.894 1099.2H308.782Z" fill="black"/>
<path d="M217.72 1218.76C219.376 1218.76 220.792 1219 221.968 1219.48C223.144 1219.94 224.284 1220.66 225.388 1221.64L223.516 1223.73C222.58 1222.99 221.656 1222.45 220.744 1222.11C219.856 1221.75 218.896 1221.57 217.864 1221.57C216.568 1221.57 215.5 1221.87 214.66 1222.47C213.82 1223.07 213.4 1223.95 213.4 1225.1C213.4 1225.82 213.544 1226.43 213.832 1226.94C214.12 1227.42 214.648 1227.86 215.416 1228.27C216.208 1228.68 217.348 1229.11 218.836 1229.56C220.396 1230.04 221.692 1230.56 222.724 1231.11C223.756 1231.66 224.584 1232.43 225.208 1233.42C225.856 1234.38 226.18 1235.6 226.18 1237.09C226.18 1238.53 225.82 1239.8 225.1 1240.9C224.404 1242.01 223.384 1242.87 222.04 1243.5C220.72 1244.12 219.148 1244.43 217.324 1244.43C213.892 1244.43 211.084 1243.36 208.9 1241.23L210.772 1239.14C211.78 1239.96 212.8 1240.58 213.832 1241.01C214.864 1241.42 216.016 1241.62 217.288 1241.62C218.824 1241.62 220.096 1241.25 221.104 1240.51C222.112 1239.74 222.616 1238.64 222.616 1237.2C222.616 1236.38 222.46 1235.71 222.148 1235.18C221.836 1234.63 221.296 1234.14 220.528 1233.7C219.784 1233.27 218.692 1232.84 217.252 1232.41C214.708 1231.64 212.848 1230.72 211.672 1229.64C210.496 1228.56 209.908 1227.09 209.908 1225.24C209.908 1224 210.232 1222.88 210.88 1221.9C211.552 1220.91 212.476 1220.14 213.652 1219.59C214.852 1219.04 216.208 1218.76 217.72 1218.76ZM239.965 1224.6C241.693 1224.6 243.037 1225.11 243.997 1226.14C244.981 1227.18 245.473 1228.59 245.473 1230.39V1244H242.161V1230.86C242.161 1229.52 241.897 1228.57 241.369 1228.02C240.865 1227.46 240.121 1227.19 239.137 1227.19C238.153 1227.19 237.277 1227.48 236.509 1228.05C235.741 1228.63 235.021 1229.44 234.349 1230.5V1244H231.037V1217.43L234.349 1217.07V1227.66C235.837 1225.62 237.709 1224.6 239.965 1224.6ZM264.911 1239.57C264.911 1240.34 265.043 1240.92 265.307 1241.3C265.571 1241.66 265.967 1241.94 266.495 1242.13L265.739 1244.43C264.755 1244.31 263.963 1244.04 263.363 1243.6C262.763 1243.17 262.319 1242.5 262.031 1241.59C260.759 1243.48 258.875 1244.43 256.379 1244.43C254.507 1244.43 253.031 1243.9 251.951 1242.85C250.871 1241.79 250.331 1240.41 250.331 1238.71C250.331 1236.69 251.051 1235.14 252.491 1234.06C253.955 1232.98 256.019 1232.44 258.683 1232.44H261.599V1231.04C261.599 1229.7 261.275 1228.74 260.627 1228.16C259.979 1227.58 258.983 1227.3 257.639 1227.3C256.247 1227.3 254.543 1227.63 252.527 1228.3L251.699 1225.89C254.051 1225.03 256.235 1224.6 258.251 1224.6C260.483 1224.6 262.151 1225.15 263.255 1226.25C264.359 1227.33 264.911 1228.88 264.911 1230.9V1239.57ZM257.135 1241.95C259.031 1241.95 260.519 1240.96 261.599 1239V1234.64H259.115C255.611 1234.64 253.859 1235.94 253.859 1238.53C253.859 1239.66 254.135 1240.51 254.687 1241.08C255.239 1241.66 256.055 1241.95 257.135 1241.95ZM286.401 1217.4V1244H283.485L283.161 1241.37C282.537 1242.33 281.757 1243.09 280.821 1243.64C279.885 1244.17 278.841 1244.43 277.689 1244.43C275.433 1244.43 273.669 1243.54 272.397 1241.77C271.149 1239.99 270.525 1237.6 270.525 1234.6C270.525 1232.66 270.825 1230.93 271.425 1229.42C272.025 1227.91 272.889 1226.73 274.017 1225.89C275.145 1225.03 276.465 1224.6 277.977 1224.6C279.921 1224.6 281.625 1225.38 283.089 1226.94V1217L286.401 1217.4ZM278.409 1241.8C279.417 1241.8 280.281 1241.58 281.001 1241.12C281.721 1240.64 282.417 1239.93 283.089 1239V1229.71C282.465 1228.89 281.793 1228.28 281.073 1227.87C280.377 1227.44 279.585 1227.22 278.697 1227.22C277.233 1227.22 276.093 1227.84 275.277 1229.06C274.485 1230.28 274.089 1232.11 274.089 1234.53C274.089 1236.98 274.461 1238.8 275.205 1240C275.949 1241.2 277.017 1241.8 278.409 1241.8ZM300.357 1224.6C303.021 1224.6 305.085 1225.48 306.549 1227.26C308.037 1229.04 308.781 1231.45 308.781 1234.5C308.781 1236.46 308.445 1238.2 307.773 1239.72C307.101 1241.2 306.129 1242.37 304.857 1243.21C303.585 1244.02 302.073 1244.43 300.321 1244.43C297.657 1244.43 295.581 1243.54 294.093 1241.77C292.605 1239.99 291.861 1237.58 291.861 1234.53C291.861 1232.56 292.197 1230.84 292.869 1229.35C293.541 1227.84 294.513 1226.67 295.785 1225.86C297.057 1225.02 298.581 1224.6 300.357 1224.6ZM300.357 1227.26C297.069 1227.26 295.425 1229.68 295.425 1234.53C295.425 1239.36 297.057 1241.77 300.321 1241.77C303.585 1241.77 305.217 1239.34 305.217 1234.5C305.217 1229.67 303.597 1227.26 300.357 1227.26ZM335.924 1225.03L331.604 1244H327.104L323.792 1228.02L320.372 1244H315.98L311.552 1225.03H314.864L318.284 1241.7L322.028 1225.03H325.736L329.3 1241.7L332.756 1225.03H335.924ZM345.205 1224.6C346.501 1224.6 347.665 1224.78 348.697 1225.14C349.729 1225.5 350.713 1226.04 351.649 1226.76L350.245 1228.84C349.381 1228.29 348.553 1227.88 347.761 1227.62C346.993 1227.36 346.177 1227.22 345.313 1227.22C344.233 1227.22 343.381 1227.45 342.757 1227.91C342.133 1228.34 341.821 1228.94 341.821 1229.71C341.821 1230.48 342.109 1231.08 342.685 1231.51C343.285 1231.94 344.353 1232.36 345.889 1232.77C348.001 1233.3 349.573 1234.02 350.605 1234.93C351.661 1235.84 352.189 1237.09 352.189 1238.67C352.189 1240.54 351.457 1241.97 349.993 1242.96C348.553 1243.94 346.789 1244.43 344.701 1244.43C341.821 1244.43 339.433 1243.6 337.537 1241.95L339.301 1239.93C340.909 1241.16 342.685 1241.77 344.629 1241.77C345.877 1241.77 346.861 1241.52 347.581 1241.01C348.325 1240.48 348.697 1239.78 348.697 1238.89C348.697 1238.24 348.565 1237.72 348.301 1237.34C348.037 1236.93 347.581 1236.58 346.933 1236.3C346.285 1235.98 345.337 1235.66 344.089 1235.32C342.073 1234.8 340.609 1234.09 339.697 1233.2C338.809 1232.31 338.365 1231.18 338.365 1229.82C338.365 1228.83 338.653 1227.94 339.229 1227.15C339.829 1226.34 340.645 1225.71 341.677 1225.28C342.733 1224.82 343.909 1224.6 345.205 1224.6Z" fill="black"/>
<circle cx="93" cy="752" r="50" fill="#FF8585"/>
<path d="M575.6 764V739.196H588.776L588.38 741.932H579.02V750.392H587.12V753.092H579.02V764H575.6ZM593.284 764V739.196H606.46L606.064 741.932H596.704V750.392H604.804V753.092H596.704V764H593.284ZM619.593 751.076C622.977 752.444 624.669 754.604 624.669 757.556C624.669 758.876 624.309 760.064 623.589 761.12C622.893 762.152 621.909 762.968 620.637 763.568C619.365 764.144 617.925 764.432 616.317 764.432C614.685 764.432 613.245 764.144 611.997 763.568C610.749 762.992 609.777 762.188 609.081 761.156C608.409 760.124 608.073 758.948 608.073 757.628C608.073 756.14 608.469 754.892 609.261 753.884C610.077 752.876 611.265 752.036 612.825 751.364C611.553 750.716 610.605 749.936 609.981 749.024C609.381 748.088 609.081 746.996 609.081 745.748C609.081 744.452 609.417 743.336 610.089 742.4C610.785 741.464 611.685 740.756 612.789 740.276C613.917 739.796 615.117 739.556 616.389 739.556C617.637 739.556 618.813 739.784 619.917 740.24C621.045 740.696 621.957 741.392 622.653 742.328C623.349 743.24 623.697 744.344 623.697 745.64C623.697 746.84 623.361 747.872 622.689 748.736C622.017 749.6 620.985 750.38 619.593 751.076ZM616.389 742.04C615.141 742.04 614.145 742.364 613.401 743.012C612.681 743.66 612.321 744.584 612.321 745.784C612.321 746.936 612.669 747.812 613.365 748.412C614.085 749.012 615.225 749.564 616.785 750.068L617.397 750.284C618.477 749.66 619.257 749 619.737 748.304C620.217 747.608 620.457 746.756 620.457 745.748C620.457 744.62 620.097 743.72 619.377 743.048C618.681 742.376 617.685 742.04 616.389 742.04ZM616.353 761.804C617.841 761.804 619.017 761.42 619.881 760.652C620.769 759.884 621.213 758.864 621.213 757.592C621.213 756.728 621.045 756.008 620.709 755.432C620.373 754.832 619.833 754.316 619.089 753.884C618.345 753.428 617.301 752.972 615.957 752.516L615.057 752.192C613.857 752.768 612.969 753.5 612.393 754.388C611.817 755.252 611.529 756.332 611.529 757.628C611.529 758.948 611.961 759.98 612.825 760.724C613.689 761.444 614.865 761.804 616.353 761.804ZM641.401 742.508H632.005V749.6C633.229 748.976 634.513 748.664 635.857 748.664C637.921 748.664 639.577 749.348 640.825 750.716C642.073 752.06 642.697 753.92 642.697 756.296C642.697 757.88 642.349 759.296 641.653 760.544C640.957 761.768 639.973 762.728 638.701 763.424C637.453 764.096 636.001 764.432 634.345 764.432C632.881 764.432 631.573 764.18 630.421 763.676C629.269 763.148 628.201 762.38 627.217 761.372L629.161 759.464C629.929 760.232 630.721 760.808 631.537 761.192C632.353 761.552 633.277 761.732 634.309 761.732C635.845 761.732 637.045 761.252 637.909 760.292C638.797 759.332 639.241 757.976 639.241 756.224C639.241 754.472 638.845 753.2 638.053 752.408C637.261 751.616 636.193 751.22 634.849 751.22C634.225 751.22 633.649 751.292 633.121 751.436C632.593 751.556 632.029 751.76 631.429 752.048H628.837V739.916H641.869L641.401 742.508ZM657.456 751.076C660.84 752.444 662.532 754.604 662.532 757.556C662.532 758.876 662.172 760.064 661.452 761.12C660.756 762.152 659.772 762.968 658.5 763.568C657.228 764.144 655.788 764.432 654.18 764.432C652.548 764.432 651.108 764.144 649.86 763.568C648.612 762.992 647.64 762.188 646.944 761.156C646.272 760.124 645.936 758.948 645.936 757.628C645.936 756.14 646.332 754.892 647.124 753.884C647.94 752.876 649.128 752.036 650.688 751.364C649.416 750.716 648.468 749.936 647.844 749.024C647.244 748.088 646.944 746.996 646.944 745.748C646.944 744.452 647.28 743.336 647.952 742.4C648.648 741.464 649.548 740.756 650.652 740.276C651.78 739.796 652.98 739.556 654.252 739.556C655.5 739.556 656.676 739.784 657.78 740.24C658.908 740.696 659.82 741.392 660.516 742.328C661.212 743.24 661.56 744.344 661.56 745.64C661.56 746.84 661.224 747.872 660.552 748.736C659.88 749.6 658.848 750.38 657.456 751.076ZM654.252 742.04C653.004 742.04 652.008 742.364 651.264 743.012C650.544 743.66 650.184 744.584 650.184 745.784C650.184 746.936 650.532 747.812 651.228 748.412C651.948 749.012 653.088 749.564 654.648 750.068L655.26 750.284C656.34 749.66 657.12 749 657.6 748.304C658.08 747.608 658.32 746.756 658.32 745.748C658.32 744.62 657.96 743.72 657.24 743.048C656.544 742.376 655.548 742.04 654.252 742.04ZM654.216 761.804C655.704 761.804 656.88 761.42 657.744 760.652C658.632 759.884 659.076 758.864 659.076 757.592C659.076 756.728 658.908 756.008 658.572 755.432C658.236 754.832 657.696 754.316 656.952 753.884C656.208 753.428 655.164 752.972 653.82 752.516L652.92 752.192C651.72 752.768 650.832 753.5 650.256 754.388C649.68 755.252 649.392 756.332 649.392 757.628C649.392 758.948 649.824 759.98 650.688 760.724C651.552 761.444 652.728 761.804 654.216 761.804ZM679.265 742.508H669.869V749.6C671.093 748.976 672.377 748.664 673.721 748.664C675.785 748.664 677.441 749.348 678.689 750.716C679.937 752.06 680.561 753.92 680.561 756.296C680.561 757.88 680.213 759.296 679.517 760.544C678.821 761.768 677.837 762.728 676.565 763.424C675.317 764.096 673.865 764.432 672.209 764.432C670.745 764.432 669.437 764.18 668.285 763.676C667.133 763.148 666.065 762.38 665.081 761.372L667.025 759.464C667.793 760.232 668.585 760.808 669.401 761.192C670.217 761.552 671.141 761.732 672.173 761.732C673.709 761.732 674.909 761.252 675.773 760.292C676.661 759.332 677.105 757.976 677.105 756.224C677.105 754.472 676.709 753.2 675.917 752.408C675.125 751.616 674.057 751.22 672.713 751.22C672.089 751.22 671.513 751.292 670.985 751.436C670.457 751.556 669.893 751.76 669.293 752.048H666.701V739.916H679.733L679.265 742.508Z" fill="black"/>
<circle cx="93" cy="872" r="50" fill="#868686"/>
<path d="M585.14 871.076C588.524 872.444 590.216 874.604 590.216 877.556C590.216 878.876 589.856 880.064 589.136 881.12C588.44 882.152 587.456 882.968 586.184 883.568C584.912 884.144 583.472 884.432 581.864 884.432C580.232 884.432 578.792 884.144 577.544 883.568C576.296 882.992 575.324 882.188 574.628 881.156C573.956 880.124 573.62 878.948 573.62 877.628C573.62 876.14 574.016 874.892 574.808 873.884C575.624 872.876 576.812 872.036 578.372 871.364C577.1 870.716 576.152 869.936 575.528 869.024C574.928 868.088 574.628 866.996 574.628 865.748C574.628 864.452 574.964 863.336 575.636 862.4C576.332 861.464 577.232 860.756 578.336 860.276C579.464 859.796 580.664 859.556 581.936 859.556C583.184 859.556 584.36 859.784 585.464 860.24C586.592 860.696 587.504 861.392 588.2 862.328C588.896 863.24 589.244 864.344 589.244 865.64C589.244 866.84 588.908 867.872 588.236 868.736C587.564 869.6 586.532 870.38 585.14 871.076ZM581.936 862.04C580.688 862.04 579.692 862.364 578.948 863.012C578.228 863.66 577.868 864.584 577.868 865.784C577.868 866.936 578.216 867.812 578.912 868.412C579.632 869.012 580.772 869.564 582.332 870.068L582.944 870.284C584.024 869.66 584.804 869 585.284 868.304C585.764 867.608 586.004 866.756 586.004 865.748C586.004 864.62 585.644 863.72 584.924 863.048C584.228 862.376 583.232 862.04 581.936 862.04ZM581.9 881.804C583.388 881.804 584.564 881.42 585.428 880.652C586.316 879.884 586.76 878.864 586.76 877.592C586.76 876.728 586.592 876.008 586.256 875.432C585.92 874.832 585.38 874.316 584.636 873.884C583.892 873.428 582.848 872.972 581.504 872.516L580.604 872.192C579.404 872.768 578.516 873.5 577.94 874.388C577.364 875.252 577.076 876.332 577.076 877.628C577.076 878.948 577.508 879.98 578.372 880.724C579.236 881.444 580.412 881.804 581.9 881.804ZM602.916 868.16C604.14 868.16 605.256 868.448 606.264 869.024C607.272 869.6 608.076 870.464 608.676 871.616C609.276 872.768 609.576 874.172 609.576 875.828C609.576 877.532 609.228 879.044 608.532 880.364C607.86 881.66 606.936 882.668 605.76 883.388C604.608 884.084 603.324 884.432 601.908 884.432C599.1 884.432 597.048 883.4 595.752 881.336C594.456 879.248 593.808 876.368 593.808 872.696C593.808 870.08 594.168 867.788 594.888 865.82C595.632 863.828 596.688 862.292 598.056 861.212C599.424 860.108 601.044 859.556 602.916 859.556C604.74 859.556 606.396 860.048 607.884 861.032L606.588 863.228C605.46 862.532 604.224 862.184 602.88 862.184C601.152 862.184 599.784 863.012 598.776 864.668C597.768 866.324 597.216 868.544 597.12 871.328C598.608 869.216 600.54 868.16 602.916 868.16ZM601.908 881.804C603.3 881.804 604.368 881.276 605.112 880.22C605.856 879.164 606.228 877.736 606.228 875.936C606.228 872.504 604.932 870.788 602.34 870.788C601.284 870.788 600.312 871.088 599.424 871.688C598.536 872.264 597.78 873.068 597.156 874.1C597.228 876.74 597.636 878.684 598.38 879.932C599.148 881.18 600.324 881.804 601.908 881.804ZM624.163 871.076C627.547 872.444 629.239 874.604 629.239 877.556C629.239 878.876 628.879 880.064 628.159 881.12C627.463 882.152 626.479 882.968 625.207 883.568C623.935 884.144 622.495 884.432 620.887 884.432C619.255 884.432 617.815 884.144 616.567 883.568C615.319 882.992 614.347 882.188 613.651 881.156C612.979 880.124 612.643 878.948 612.643 877.628C612.643 876.14 613.039 874.892 613.831 873.884C614.647 872.876 615.835 872.036 617.395 871.364C616.123 870.716 615.175 869.936 614.551 869.024C613.951 868.088 613.651 866.996 613.651 865.748C613.651 864.452 613.987 863.336 614.659 862.4C615.355 861.464 616.255 860.756 617.359 860.276C618.487 859.796 619.687 859.556 620.959 859.556C622.207 859.556 623.383 859.784 624.487 860.24C625.615 860.696 626.527 861.392 627.223 862.328C627.919 863.24 628.267 864.344 628.267 865.64C628.267 866.84 627.931 867.872 627.259 868.736C626.587 869.6 625.555 870.38 624.163 871.076ZM620.959 862.04C619.711 862.04 618.715 862.364 617.971 863.012C617.251 863.66 616.891 864.584 616.891 865.784C616.891 866.936 617.239 867.812 617.935 868.412C618.655 869.012 619.795 869.564 621.355 870.068L621.967 870.284C623.047 869.66 623.827 869 624.307 868.304C624.787 867.608 625.027 866.756 625.027 865.748C625.027 864.62 624.667 863.72 623.947 863.048C623.251 862.376 622.255 862.04 620.959 862.04ZM620.923 881.804C622.411 881.804 623.587 881.42 624.451 880.652C625.339 879.884 625.783 878.864 625.783 877.592C625.783 876.728 625.615 876.008 625.279 875.432C624.943 874.832 624.403 874.316 623.659 873.884C622.915 873.428 621.871 872.972 620.527 872.516L619.627 872.192C618.427 872.768 617.539 873.5 616.963 874.388C616.387 875.252 616.099 876.332 616.099 877.628C616.099 878.948 616.531 879.98 617.395 880.724C618.259 881.444 619.435 881.804 620.923 881.804ZM641.94 868.16C643.164 868.16 644.28 868.448 645.288 869.024C646.296 869.6 647.1 870.464 647.7 871.616C648.3 872.768 648.6 874.172 648.6 875.828C648.6 877.532 648.252 879.044 647.556 880.364C646.884 881.66 645.96 882.668 644.784 883.388C643.632 884.084 642.348 884.432 640.932 884.432C638.124 884.432 636.072 883.4 634.776 881.336C633.48 879.248 632.832 876.368 632.832 872.696C632.832 870.08 633.192 867.788 633.912 865.82C634.656 863.828 635.712 862.292 637.08 861.212C638.448 860.108 640.068 859.556 641.94 859.556C643.764 859.556 645.42 860.048 646.908 861.032L645.612 863.228C644.484 862.532 643.248 862.184 641.904 862.184C640.176 862.184 638.808 863.012 637.8 864.668C636.792 866.324 636.24 868.544 636.144 871.328C637.632 869.216 639.564 868.16 641.94 868.16ZM640.932 881.804C642.324 881.804 643.392 881.276 644.136 880.22C644.88 879.164 645.252 877.736 645.252 875.936C645.252 872.504 643.956 870.788 641.364 870.788C640.308 870.788 639.336 871.088 638.448 871.688C637.56 872.264 636.804 873.068 636.18 874.1C636.252 876.74 636.66 878.684 637.404 879.932C638.172 881.18 639.348 881.804 640.932 881.804ZM663.187 871.076C666.571 872.444 668.263 874.604 668.263 877.556C668.263 878.876 667.903 880.064 667.183 881.12C666.487 882.152 665.503 882.968 664.231 883.568C662.959 884.144 661.519 884.432 659.911 884.432C658.279 884.432 656.839 884.144 655.591 883.568C654.343 882.992 653.371 882.188 652.675 881.156C652.003 880.124 651.667 878.948 651.667 877.628C651.667 876.14 652.063 874.892 652.855 873.884C653.671 872.876 654.859 872.036 656.419 871.364C655.147 870.716 654.199 869.936 653.575 869.024C652.975 868.088 652.675 866.996 652.675 865.748C652.675 864.452 653.011 863.336 653.683 862.4C654.379 861.464 655.279 860.756 656.383 860.276C657.511 859.796 658.711 859.556 659.983 859.556C661.231 859.556 662.407 859.784 663.511 860.24C664.639 860.696 665.551 861.392 666.247 862.328C666.943 863.24 667.291 864.344 667.291 865.64C667.291 866.84 666.955 867.872 666.283 868.736C665.611 869.6 664.579 870.38 663.187 871.076ZM659.983 862.04C658.735 862.04 657.739 862.364 656.995 863.012C656.275 863.66 655.915 864.584 655.915 865.784C655.915 866.936 656.263 867.812 656.959 868.412C657.679 869.012 658.819 869.564 660.379 870.068L660.991 870.284C662.071 869.66 662.851 869 663.331 868.304C663.811 867.608 664.051 866.756 664.051 865.748C664.051 864.62 663.691 863.72 662.971 863.048C662.275 862.376 661.279 862.04 659.983 862.04ZM659.947 881.804C661.435 881.804 662.611 881.42 663.475 880.652C664.363 879.884 664.807 878.864 664.807 877.592C664.807 876.728 664.639 876.008 664.303 875.432C663.967 874.832 663.427 874.316 662.683 873.884C661.939 873.428 660.895 872.972 659.551 872.516L658.651 872.192C657.451 872.768 656.563 873.5 655.987 874.388C655.411 875.252 655.123 876.332 655.123 877.628C655.123 878.948 655.555 879.98 656.419 880.724C657.283 881.444 658.459 881.804 659.947 881.804ZM680.963 868.16C682.187 868.16 683.303 868.448 684.311 869.024C685.319 869.6 686.123 870.464 686.723 871.616C687.323 872.768 687.623 874.172 687.623 875.828C687.623 877.532 687.275 879.044 686.579 880.364C685.907 881.66 684.983 882.668 683.807 883.388C682.655 884.084 681.371 884.432 679.955 884.432C677.147 884.432 675.095 883.4 673.799 881.336C672.503 879.248 671.855 876.368 671.855 872.696C671.855 870.08 672.215 867.788 672.935 865.82C673.679 863.828 674.735 862.292 676.103 861.212C677.471 860.108 679.091 859.556 680.963 859.556C682.787 859.556 684.443 860.048 685.931 861.032L684.635 863.228C683.507 862.532 682.271 862.184 680.927 862.184C679.199 862.184 677.831 863.012 676.823 864.668C675.815 866.324 675.263 868.544 675.167 871.328C676.655 869.216 678.587 868.16 680.963 868.16ZM679.955 881.804C681.347 881.804 682.415 881.276 683.159 880.22C683.903 879.164 684.275 877.736 684.275 875.936C684.275 872.504 682.979 870.788 680.387 870.788C679.331 870.788 678.359 871.088 677.471 871.688C676.583 872.264 675.827 873.068 675.203 874.1C675.275 876.74 675.683 878.684 676.427 879.932C677.195 881.18 678.371 881.804 679.955 881.804Z" fill="black"/>
<circle cx="93" cy="992" r="50" fill="#3B4249"/>
<circle cx="93" cy="1112" r="50" fill="black"/>
<path d="M582.044 1099.56C584.708 1099.56 586.712 1100.62 588.056 1102.76C589.424 1104.87 590.108 1107.94 590.108 1111.98C590.108 1116.01 589.424 1119.09 588.056 1121.23C586.712 1123.36 584.708 1124.43 582.044 1124.43C579.38 1124.43 577.364 1123.36 575.996 1121.23C574.652 1119.09 573.98 1116.01 573.98 1111.98C573.98 1107.94 574.652 1104.87 575.996 1102.76C577.364 1100.62 579.38 1099.56 582.044 1099.56ZM582.044 1102.18C580.484 1102.18 579.32 1102.95 578.552 1104.49C577.808 1106.02 577.436 1108.52 577.436 1111.98C577.436 1115.43 577.808 1117.94 578.552 1119.5C579.32 1121.04 580.484 1121.8 582.044 1121.8C583.58 1121.8 584.732 1121.04 585.5 1119.5C586.268 1117.94 586.652 1115.43 586.652 1111.98C586.652 1108.54 586.268 1106.06 585.5 1104.52C584.732 1102.96 583.58 1102.18 582.044 1102.18ZM602.118 1099.56C604.782 1099.56 606.786 1100.62 608.13 1102.76C609.498 1104.87 610.182 1107.94 610.182 1111.98C610.182 1116.01 609.498 1119.09 608.13 1121.23C606.786 1123.36 604.782 1124.43 602.118 1124.43C599.454 1124.43 597.438 1123.36 596.07 1121.23C594.726 1119.09 594.054 1116.01 594.054 1111.98C594.054 1107.94 594.726 1104.87 596.07 1102.76C597.438 1100.62 599.454 1099.56 602.118 1099.56ZM602.118 1102.18C600.558 1102.18 599.394 1102.95 598.626 1104.49C597.882 1106.02 597.51 1108.52 597.51 1111.98C597.51 1115.43 597.882 1117.94 598.626 1119.5C599.394 1121.04 600.558 1121.8 602.118 1121.8C603.654 1121.8 604.806 1121.04 605.574 1119.5C606.342 1117.94 606.726 1115.43 606.726 1111.98C606.726 1108.54 606.342 1106.06 605.574 1104.52C604.806 1102.96 603.654 1102.18 602.118 1102.18ZM622.192 1099.56C624.856 1099.56 626.86 1100.62 628.204 1102.76C629.572 1104.87 630.256 1107.94 630.256 1111.98C630.256 1116.01 629.572 1119.09 628.204 1121.23C626.86 1123.36 624.856 1124.43 622.192 1124.43C619.528 1124.43 617.512 1123.36 616.144 1121.23C614.8 1119.09 614.128 1116.01 614.128 1111.98C614.128 1107.94 614.8 1104.87 616.144 1102.76C617.512 1100.62 619.528 1099.56 622.192 1099.56ZM622.192 1102.18C620.632 1102.18 619.468 1102.95 618.7 1104.49C617.956 1106.02 617.584 1108.52 617.584 1111.98C617.584 1115.43 617.956 1117.94 618.7 1119.5C619.468 1121.04 620.632 1121.8 622.192 1121.8C623.728 1121.8 624.88 1121.04 625.648 1119.5C626.416 1117.94 626.8 1115.43 626.8 1111.98C626.8 1108.54 626.416 1106.06 625.648 1104.52C624.88 1102.96 623.728 1102.18 622.192 1102.18ZM642.267 1099.56C644.931 1099.56 646.935 1100.62 648.279 1102.76C649.647 1104.87 650.331 1107.94 650.331 1111.98C650.331 1116.01 649.647 1119.09 648.279 1121.23C646.935 1123.36 644.931 1124.43 642.267 1124.43C639.603 1124.43 637.587 1123.36 636.219 1121.23C634.875 1119.09 634.203 1116.01 634.203 1111.98C634.203 1107.94 634.875 1104.87 636.219 1102.76C637.587 1100.62 639.603 1099.56 642.267 1099.56ZM642.267 1102.18C640.707 1102.18 639.543 1102.95 638.775 1104.49C638.031 1106.02 637.659 1108.52 637.659 1111.98C637.659 1115.43 638.031 1117.94 638.775 1119.5C639.543 1121.04 640.707 1121.8 642.267 1121.8C643.803 1121.8 644.955 1121.04 645.723 1119.5C646.491 1117.94 646.875 1115.43 646.875 1111.98C646.875 1108.54 646.491 1106.06 645.723 1104.52C644.955 1102.96 643.803 1102.18 642.267 1102.18ZM662.341 1099.56C665.005 1099.56 667.009 1100.62 668.353 1102.76C669.721 1104.87 670.405 1107.94 670.405 1111.98C670.405 1116.01 669.721 1119.09 668.353 1121.23C667.009 1123.36 665.005 1124.43 662.341 1124.43C659.677 1124.43 657.661 1123.36 656.293 1121.23C654.949 1119.09 654.277 1116.01 654.277 1111.98C654.277 1107.94 654.949 1104.87 656.293 1102.76C657.661 1100.62 659.677 1099.56 662.341 1099.56ZM662.341 1102.18C660.781 1102.18 659.617 1102.95 658.849 1104.49C658.105 1106.02 657.733 1108.52 657.733 1111.98C657.733 1115.43 658.105 1117.94 658.849 1119.5C659.617 1121.04 660.781 1121.8 662.341 1121.8C663.877 1121.8 665.029 1121.04 665.797 1119.5C666.565 1117.94 666.949 1115.43 666.949 1111.98C666.949 1108.54 666.565 1106.06 665.797 1104.52C665.029 1102.96 663.877 1102.18 662.341 1102.18ZM682.415 1099.56C685.079 1099.56 687.083 1100.62 688.427 1102.76C689.795 1104.87 690.479 1107.94 690.479 1111.98C690.479 1116.01 689.795 1119.09 688.427 1121.23C687.083 1123.36 685.079 1124.43 682.415 1124.43C679.751 1124.43 677.735 1123.36 676.367 1121.23C675.023 1119.09 674.351 1116.01 674.351 1111.98C674.351 1107.94 675.023 1104.87 676.367 1102.76C677.735 1100.62 679.751 1099.56 682.415 1099.56ZM682.415 1102.18C680.855 1102.18 679.691 1102.95 678.923 1104.49C678.179 1106.02 677.807 1108.52 677.807 1111.98C677.807 1115.43 678.179 1117.94 678.923 1119.5C679.691 1121.04 680.855 1121.8 682.415 1121.8C683.951 1121.8 685.103 1121.04 685.871 1119.5C686.639 1117.94 687.023 1115.43 687.023 1111.98C687.023 1108.54 686.639 1106.06 685.871 1104.52C685.103 1102.96 683.951 1102.18 682.415 1102.18Z" fill="black"/>
<path d="M580.1 979.556C581.588 979.556 582.86 979.832 583.916 980.384C584.996 980.936 585.812 981.68 586.364 982.616C586.94 983.552 587.228 984.572 587.228 985.676C587.228 987.14 586.796 988.352 585.932 989.312C585.092 990.248 583.964 990.884 582.548 991.22C584.156 991.364 585.464 991.94 586.472 992.948C587.48 993.956 587.984 995.324 587.984 997.052C587.984 998.444 587.648 999.704 586.976 1000.83C586.304 1001.96 585.344 1002.85 584.096 1003.5C582.848 1004.12 581.408 1004.43 579.776 1004.43C578.312 1004.43 576.968 1004.17 575.744 1003.64C574.52 1003.09 573.452 1002.27 572.54 1001.19L574.52 999.356C575.312 1000.17 576.116 1000.77 576.932 1001.16C577.772 1001.54 578.684 1001.73 579.668 1001.73C581.18 1001.73 582.368 1001.31 583.232 1000.47C584.096 999.608 584.528 998.456 584.528 997.016C584.528 995.432 584.12 994.316 583.304 993.668C582.488 993.02 581.3 992.696 579.74 992.696H577.94L578.336 990.14H579.56C580.808 990.14 581.84 989.768 582.656 989.024C583.496 988.28 583.916 987.236 583.916 985.892C583.916 984.764 583.556 983.876 582.836 983.228C582.116 982.556 581.144 982.22 579.92 982.22C578.984 982.22 578.12 982.388 577.328 982.724C576.56 983.06 575.768 983.612 574.952 984.38L573.224 982.4C575.264 980.504 577.556 979.556 580.1 979.556ZM604.509 990.896C606.213 991.184 607.593 991.784 608.649 992.696C609.705 993.608 610.233 995.024 610.233 996.944C610.233 1001.65 606.957 1004 600.405 1004H593.565V979.196H599.433C602.577 979.196 604.977 979.712 606.633 980.744C608.313 981.776 609.153 983.348 609.153 985.46C609.153 986.9 608.697 988.1 607.785 989.06C606.897 990.02 605.805 990.632 604.509 990.896ZM596.985 981.896V989.708H600.729C602.169 989.708 603.345 989.36 604.257 988.664C605.193 987.968 605.661 986.984 605.661 985.712C605.661 984.272 605.169 983.276 604.185 982.724C603.225 982.172 601.761 981.896 599.793 981.896H596.985ZM600.405 1001.26C602.421 1001.26 603.957 1000.96 605.013 1000.36C606.093 999.764 606.633 998.624 606.633 996.944C606.633 995.312 606.117 994.136 605.085 993.416C604.053 992.696 602.709 992.336 601.053 992.336H596.985V1001.26H600.405ZM629.588 995.432V998.06H626.456V1004H623.252V998.06H612.956V995.684L620.192 979.556L622.964 980.708L616.448 995.432H623.288L623.576 988.952H626.456V995.432H629.588ZM638.181 979.556C639.621 979.556 640.881 979.844 641.961 980.42C643.065 980.996 643.917 981.788 644.517 982.796C645.117 983.78 645.417 984.896 645.417 986.144C645.417 987.608 645.081 989.012 644.409 990.356C643.761 991.7 642.753 993.152 641.385 994.712C640.017 996.272 637.941 998.444 635.157 1001.23H645.993L645.597 1004H631.377V1001.37C634.593 998.036 636.873 995.6 638.217 994.064C639.561 992.504 640.521 991.148 641.097 989.996C641.673 988.844 641.961 987.608 641.961 986.288C641.961 985.04 641.601 984.068 640.881 983.372C640.161 982.652 639.201 982.292 638.001 982.292C637.017 982.292 636.153 982.496 635.409 982.904C634.665 983.312 633.873 983.984 633.033 984.92L630.873 983.192C631.857 981.968 632.949 981.056 634.149 980.456C635.349 979.856 636.693 979.556 638.181 979.556ZM664.885 995.432V998.06H661.753V1004H658.549V998.06H648.253V995.684L655.489 979.556L658.261 980.708L651.745 995.432H658.585L658.873 988.952H661.753V995.432H664.885ZM674.594 979.556C677.138 979.556 679.07 980.396 680.39 982.076C681.71 983.732 682.37 986.012 682.37 988.916C682.37 992.204 681.926 994.856 681.038 996.872C680.15 998.864 678.794 1000.46 676.97 1001.66C675.146 1002.84 672.674 1003.88 669.554 1004.79L668.798 1002.31C672.014 1001.4 674.474 1000.16 676.178 998.6C677.906 997.04 678.83 994.964 678.95 992.372C678.398 993.236 677.654 993.932 676.718 994.46C675.782 994.988 674.726 995.252 673.55 995.252C672.302 995.252 671.174 994.94 670.166 994.316C669.158 993.668 668.354 992.768 667.754 991.616C667.178 990.44 666.89 989.072 666.89 987.512C666.89 985.88 667.238 984.464 667.934 983.264C668.63 982.064 669.554 981.152 670.706 980.528C671.882 979.88 673.178 979.556 674.594 979.556ZM674.234 992.66C676.13 992.66 677.726 991.664 679.022 989.672C679.07 987.008 678.734 985.1 678.014 983.948C677.318 982.772 676.202 982.184 674.666 982.184C673.25 982.184 672.158 982.652 671.39 983.588C670.622 984.524 670.238 985.856 670.238 987.584C670.238 989.264 670.598 990.536 671.318 991.4C672.038 992.24 673.01 992.66 674.234 992.66Z" fill="black"/>
<circle cx="93" cy="1232" r="50" fill="black" fill-opacity="0.25"/>
<path d="M582.044 1219.56C584.708 1219.56 586.712 1220.62 588.056 1222.76C589.424 1224.87 590.108 1227.94 590.108 1231.98C590.108 1236.01 589.424 1239.09 588.056 1241.23C586.712 1243.36 584.708 1244.43 582.044 1244.43C579.38 1244.43 577.364 1243.36 575.996 1241.23C574.652 1239.09 573.98 1236.01 573.98 1231.98C573.98 1227.94 574.652 1224.87 575.996 1222.76C577.364 1220.62 579.38 1219.56 582.044 1219.56ZM582.044 1222.18C580.484 1222.18 579.32 1222.95 578.552 1224.49C577.808 1226.02 577.436 1228.52 577.436 1231.98C577.436 1235.43 577.808 1237.94 578.552 1239.5C579.32 1241.04 580.484 1241.8 582.044 1241.8C583.58 1241.8 584.732 1241.04 585.5 1239.5C586.268 1237.94 586.652 1235.43 586.652 1231.98C586.652 1228.54 586.268 1226.06 585.5 1224.52C584.732 1222.96 583.58 1222.18 582.044 1222.18ZM602.118 1219.56C604.782 1219.56 606.786 1220.62 608.13 1222.76C609.498 1224.87 610.182 1227.94 610.182 1231.98C610.182 1236.01 609.498 1239.09 608.13 1241.23C606.786 1243.36 604.782 1244.43 602.118 1244.43C599.454 1244.43 597.438 1243.36 596.07 1241.23C594.726 1239.09 594.054 1236.01 594.054 1231.98C594.054 1227.94 594.726 1224.87 596.07 1222.76C597.438 1220.62 599.454 1219.56 602.118 1219.56ZM602.118 1222.18C600.558 1222.18 599.394 1222.95 598.626 1224.49C597.882 1226.02 597.51 1228.52 597.51 1231.98C597.51 1235.43 597.882 1237.94 598.626 1239.5C599.394 1241.04 600.558 1241.8 602.118 1241.8C603.654 1241.8 604.806 1241.04 605.574 1239.5C606.342 1237.94 606.726 1235.43 606.726 1231.98C606.726 1228.54 606.342 1226.06 605.574 1224.52C604.806 1222.96 603.654 1222.18 602.118 1222.18ZM622.192 1219.56C624.856 1219.56 626.86 1220.62 628.204 1222.76C629.572 1224.87 630.256 1227.94 630.256 1231.98C630.256 1236.01 629.572 1239.09 628.204 1241.23C626.86 1243.36 624.856 1244.43 622.192 1244.43C619.528 1244.43 617.512 1243.36 616.144 1241.23C614.8 1239.09 614.128 1236.01 614.128 1231.98C614.128 1227.94 614.8 1224.87 616.144 1222.76C617.512 1220.62 619.528 1219.56 622.192 1219.56ZM622.192 1222.18C620.632 1222.18 619.468 1222.95 618.7 1224.49C617.956 1226.02 617.584 1228.52 617.584 1231.98C617.584 1235.43 617.956 1237.94 618.7 1239.5C619.468 1241.04 620.632 1241.8 622.192 1241.8C623.728 1241.8 624.88 1241.04 625.648 1239.5C626.416 1237.94 626.8 1235.43 626.8 1231.98C626.8 1228.54 626.416 1226.06 625.648 1224.52C624.88 1222.96 623.728 1222.18 622.192 1222.18ZM642.267 1219.56C644.931 1219.56 646.935 1220.62 648.279 1222.76C649.647 1224.87 650.331 1227.94 650.331 1231.98C650.331 1236.01 649.647 1239.09 648.279 1241.23C646.935 1243.36 644.931 1244.43 642.267 1244.43C639.603 1244.43 637.587 1243.36 636.219 1241.23C634.875 1239.09 634.203 1236.01 634.203 1231.98C634.203 1227.94 634.875 1224.87 636.219 1222.76C637.587 1220.62 639.603 1219.56 642.267 1219.56ZM642.267 1222.18C640.707 1222.18 639.543 1222.95 638.775 1224.49C638.031 1226.02 637.659 1228.52 637.659 1231.98C637.659 1235.43 638.031 1237.94 638.775 1239.5C639.543 1241.04 640.707 1241.8 642.267 1241.8C643.803 1241.8 644.955 1241.04 645.723 1239.5C646.491 1237.94 646.875 1235.43 646.875 1231.98C646.875 1228.54 646.491 1226.06 645.723 1224.52C644.955 1222.96 643.803 1222.18 642.267 1222.18ZM662.341 1219.56C665.005 1219.56 667.009 1220.62 668.353 1222.76C669.721 1224.87 670.405 1227.94 670.405 1231.98C670.405 1236.01 669.721 1239.09 668.353 1241.23C667.009 1243.36 665.005 1244.43 662.341 1244.43C659.677 1244.43 657.661 1243.36 656.293 1241.23C654.949 1239.09 654.277 1236.01 654.277 1231.98C654.277 1227.94 654.949 1224.87 656.293 1222.76C657.661 1220.62 659.677 1219.56 662.341 1219.56ZM662.341 1222.18C660.781 1222.18 659.617 1222.95 658.849 1224.49C658.105 1226.02 657.733 1228.52 657.733 1231.98C657.733 1235.43 658.105 1237.94 658.849 1239.5C659.617 1241.04 660.781 1241.8 662.341 1241.8C663.877 1241.8 665.029 1241.04 665.797 1239.5C666.565 1237.94 666.949 1235.43 666.949 1231.98C666.949 1228.54 666.565 1226.06 665.797 1224.52C665.029 1222.96 663.877 1222.18 662.341 1222.18ZM682.415 1219.56C685.079 1219.56 687.083 1220.62 688.427 1222.76C689.795 1224.87 690.479 1227.94 690.479 1231.98C690.479 1236.01 689.795 1239.09 688.427 1241.23C687.083 1243.36 685.079 1244.43 682.415 1244.43C679.751 1244.43 677.735 1243.36 676.367 1241.23C675.023 1239.09 674.351 1236.01 674.351 1231.98C674.351 1227.94 675.023 1224.87 676.367 1222.76C677.735 1220.62 679.751 1219.56 682.415 1219.56ZM682.415 1222.18C680.855 1222.18 679.691 1222.95 678.923 1224.49C678.179 1226.02 677.807 1228.52 677.807 1231.98C677.807 1235.43 678.179 1237.94 678.923 1239.5C679.691 1241.04 680.855 1241.8 682.415 1241.8C683.951 1241.8 685.103 1241.04 685.871 1239.5C686.639 1237.94 687.023 1235.43 687.023 1231.98C687.023 1228.54 686.639 1226.06 685.871 1224.52C685.103 1222.96 683.951 1222.18 682.415 1222.18ZM710.517 1235.43V1238.06H707.385V1244H704.181V1238.06H693.885V1235.68L701.121 1219.56L703.893 1220.71L697.377 1235.43H704.217L704.505 1228.95H707.385V1235.43H710.517ZM721.649 1219.56C724.313 1219.56 726.317 1220.62 727.661 1222.76C729.029 1224.87 729.713 1227.94 729.713 1231.98C729.713 1236.01 729.029 1239.09 727.661 1241.23C726.317 1243.36 724.313 1244.43 721.649 1244.43C718.985 1244.43 716.969 1243.36 715.601 1241.23C714.257 1239.09 713.585 1236.01 713.585 1231.98C713.585 1227.94 714.257 1224.87 715.601 1222.76C716.969 1220.62 718.985 1219.56 721.649 1219.56ZM721.649 1222.18C720.089 1222.18 718.925 1222.95 718.157 1224.49C717.413 1226.02 717.041 1228.52 717.041 1231.98C717.041 1235.43 717.413 1237.94 718.157 1239.5C718.925 1241.04 720.089 1241.8 721.649 1241.8C723.185 1241.8 724.337 1241.04 725.105 1239.5C725.873 1237.94 726.257 1235.43 726.257 1231.98C726.257 1228.54 725.873 1226.06 725.105 1224.52C724.337 1222.96 723.185 1222.18 721.649 1222.18Z" fill="black"/>
</svg>
