<svg width="91" height="32" viewBox="0 0 91 32" fill="none" xmlns="http://www.w3.org/2000/svg">
<path d="M23.2002 22.3002L29.6002 13.0002L23.1002 3.7002H16.7002L23.1002 13.0002L16.7002 22.3002H23.2002Z" fill="#3B4249"/>
<path d="M37.2519 9.57382V18.0698H34.7239V9.57382H37.2519ZM35.9719 5.09382C36.4093 5.09382 36.7666 5.23249 37.0439 5.50982C37.3319 5.77649 37.4759 6.11782 37.4759 6.53382C37.4759 6.94982 37.3319 7.29649 37.0439 7.57382C36.7666 7.84049 36.4093 7.97382 35.9719 7.97382C35.5346 7.97382 35.1773 7.84049 34.8999 7.57382C34.6226 7.29649 34.4839 6.94982 34.4839 6.53382C34.4839 6.11782 34.6226 5.77649 34.8999 5.50982C35.1773 5.23249 35.5346 5.09382 35.9719 5.09382ZM46.5516 9.57382L43.8796 18.0698H40.8876L38.1516 9.57382H40.9036L42.4076 16.1498L43.9756 9.57382H46.5516ZM50.9977 9.30182C52.299 9.30182 53.3177 9.70182 54.0537 10.5018C54.7897 11.2912 55.1577 12.4005 55.1577 13.8298C55.1577 14.7365 54.987 15.5312 54.6457 16.2138C54.315 16.8858 53.835 17.4085 53.2057 17.7818C52.587 18.1552 51.851 18.3418 50.9977 18.3418C49.707 18.3418 48.6884 17.9472 47.9417 17.1578C47.2057 16.3578 46.8377 15.2432 46.8377 13.8138C46.8377 12.9072 47.003 12.1178 47.3337 11.4458C47.675 10.7632 48.155 10.2352 48.7737 9.86182C49.403 9.48849 50.1444 9.30182 50.9977 9.30182ZM50.9977 11.1578C50.4857 11.1578 50.1017 11.3765 49.8457 11.8138C49.5897 12.2405 49.4617 12.9072 49.4617 13.8138C49.4617 14.7418 49.5844 15.4192 49.8297 15.8458C50.0857 16.2725 50.475 16.4858 50.9977 16.4858C51.5097 16.4858 51.8937 16.2725 52.1497 15.8458C52.4057 15.4085 52.5337 14.7365 52.5337 13.8298C52.5337 12.9018 52.4057 12.2245 52.1497 11.7978C51.9044 11.3712 51.5204 11.1578 50.9977 11.1578ZM60.3414 9.30182C61.6428 9.30182 62.6614 9.70182 63.3974 10.5018C64.1334 11.2912 64.5014 12.4005 64.5014 13.8298C64.5014 14.7365 64.3308 15.5312 63.9894 16.2138C63.6588 16.8858 63.1788 17.4085 62.5494 17.7818C61.9308 18.1552 61.1948 18.3418 60.3414 18.3418C59.0508 18.3418 58.0321 17.9472 57.2854 17.1578C56.5494 16.3578 56.1814 15.2432 56.1814 13.8138C56.1814 12.9072 56.3468 12.1178 56.6774 11.4458C57.0188 10.7632 57.4988 10.2352 58.1174 9.86182C58.7468 9.48849 59.4881 9.30182 60.3414 9.30182ZM60.3414 11.1578C59.8294 11.1578 59.4454 11.3765 59.1894 11.8138C58.9334 12.2405 58.8054 12.9072 58.8054 13.8138C58.8054 14.7418 58.9281 15.4192 59.1734 15.8458C59.4294 16.2725 59.8188 16.4858 60.3414 16.4858C60.8534 16.4858 61.2374 16.2725 61.4934 15.8458C61.7494 15.4085 61.8774 14.7365 61.8774 13.8298C61.8774 12.9018 61.7494 12.2245 61.4934 11.7978C61.2481 11.3712 60.8641 11.1578 60.3414 11.1578ZM73.6212 6.19782V18.0698H71.3812L71.2532 17.0778C70.6559 17.9205 69.8505 18.3418 68.8372 18.3418C67.7812 18.3418 66.9759 17.9365 66.4212 17.1258C65.8772 16.3152 65.6052 15.2058 65.6052 13.7978C65.6052 12.9338 65.7492 12.1605 66.0372 11.4778C66.3252 10.7952 66.7305 10.2618 67.2532 9.87782C67.7865 9.49382 68.3945 9.30182 69.0772 9.30182C69.8879 9.30182 70.5599 9.56849 71.0932 10.1018V5.92582L73.6212 6.19782ZM69.6212 16.4858C70.2079 16.4858 70.6985 16.1658 71.0932 15.5258V11.8618C70.8905 11.6165 70.6825 11.4352 70.4692 11.3178C70.2665 11.2005 70.0319 11.1418 69.7652 11.1418C69.2959 11.1418 68.9225 11.3605 68.6452 11.7978C68.3679 12.2352 68.2292 12.9072 68.2292 13.8138C68.2292 14.8058 68.3465 15.4992 68.5812 15.8938C68.8265 16.2885 69.1732 16.4858 69.6212 16.4858ZM77.8549 18.3418C77.1189 18.3418 76.5429 18.1338 76.1269 17.7178C75.7216 17.2912 75.5189 16.6885 75.5189 15.9098V6.19782L78.0469 5.92582V15.8138C78.0469 16.1658 78.1909 16.3418 78.4789 16.3418C78.6283 16.3418 78.7669 16.3152 78.8949 16.2618L79.3909 18.0538C78.9323 18.2458 78.4203 18.3418 77.8549 18.3418ZM87.6788 13.6538C87.6788 14.0058 87.6628 14.3098 87.6308 14.5658H82.3668C82.4521 15.2805 82.6548 15.7818 82.9748 16.0698C83.2948 16.3578 83.7375 16.5018 84.3028 16.5018C84.6441 16.5018 84.9748 16.4432 85.2948 16.3258C85.6148 16.1978 85.9615 16.0058 86.3348 15.7498L87.3748 17.1578C86.3828 17.9472 85.2788 18.3418 84.0628 18.3418C82.6868 18.3418 81.6308 17.9365 80.8948 17.1258C80.1588 16.3152 79.7908 15.2272 79.7908 13.8618C79.7908 12.9978 79.9455 12.2245 80.2548 11.5418C80.5641 10.8485 81.0175 10.3045 81.6148 9.90982C82.2121 9.50449 82.9268 9.30182 83.7588 9.30182C84.9855 9.30182 85.9455 9.68582 86.6388 10.4538C87.3321 11.2218 87.6788 12.2885 87.6788 13.6538ZM85.1988 12.9338C85.1775 11.6325 84.7188 10.9818 83.8228 10.9818C83.3855 10.9818 83.0441 11.1418 82.7988 11.4618C82.5641 11.7818 82.4201 12.3098 82.3668 13.0458H85.1988V12.9338Z" fill="#3B4249"/>
<path d="M19.7999 13.1001L6.8999 31.7001H0.399902L13.1999 13.1001H19.7999Z" fill="#3B4249"/>
</svg>
