<svg width="491" height="447" viewBox="0 0 491 447" fill="none" xmlns="http://www.w3.org/2000/svg">
<g clip-path="url(#clip0_2131_5424)">
<path d="M400 213.2C371.4 201 346.1 170.5 324 121.7C313 97.4001 313 86.2001 316.2 71.4001C294.7 65.8001 273.3 56.2001 253.3 37.8001C177.9 -31.7999 85.3001 5.50009 22.3001 61.8001C-40.6999 118.1 55.1001 160.6 9.60008 255.3C-35.8999 350 143.7 349.5 173 414.5C202.3 479.5 288.3 438.5 397.1 365.4C464.2 320.3 490 277.6 490.3 230.9C460.8 234.3 427.9 225.1 400 213.2Z" fill="#00A860"/>
<path d="M465.2 137.8C435.3 73.2 375.6 87.2 316.1 71.5C313 86.2 312.9 97.4 323.9 121.8C346 170.6 371.4 201 399.9 213.3C427.8 225.2 460.7 234.4 490.1 231.1C490.4 202 480.8 171.4 465.2 137.8Z" fill="#80D3AF"/>
</g>
<defs>
<clipPath id="clip0_2131_5424">
<rect width="490.2" height="447" fill="white"/>
</clipPath>
</defs>
</svg>
