<svg width="566" height="465" viewBox="0 0 566 465" fill="none" xmlns="http://www.w3.org/2000/svg">
<g clip-path="url(#clip0_2131_5421)">
<path d="M313 0C167.7 0 91.4 26.2 83.9 78.6C105.8 144.5 101.5 209 71.2 272.1C70.9 272.6 70.7 273.1 70.5 273.6C86.1 271.3 104.6 270.1 126.3 270.1C236.2 270.1 234.5 299 253.9 347.7C267.1 380.7 257.1 411.8 238.3 437.9C274 493.1 404.6 452.4 472.5 395.2C519.5 355.6 550.7 274.6 566.1 152.2C542.6 50.8 458.3 0 313 0Z" fill="#00A860"/>
<path d="M253.8 347.8C234.3 299 236.1 270.2 126.2 270.2C104.6 270.2 86 271.4 70.4 273.7C27.6 366.9 205.4 366.8 234.5 431.4C235.6 433.8 236.8 436 238.2 438.1C257 412 267 380.8 253.8 347.8Z" fill="#80D3AF"/>
</g>
<defs>
<clipPath id="clip0_2131_5421">
<rect width="566" height="464.1" fill="white"/>
</clipPath>
</defs>
</svg>
